<svg width="18" height="18" viewBox="0 0 18 18" fill="none" xmlns="http://www.w3.org/2000/svg">
<path d="M7.2002 10C7.64187 10.0001 7.99989 10.3581 8 10.7998V17.2002C7.99989 17.6419 7.64187 17.9999 7.2002 18H0.799805C0.358132 17.9999 0.000105366 17.6419 0 17.2002V10.7998C0.000105527 10.3581 0.358132 10.0001 0.799805 10H7.2002ZM17.2002 10C17.6419 10.0001 17.9999 10.3581 18 10.7998V17.2002C17.9999 17.6419 17.6419 17.9999 17.2002 18H10.7998C10.3581 17.9999 10.0001 17.6419 10 17.2002V10.7998C10.0001 10.3581 10.3581 10.0001 10.7998 10H17.2002ZM1.59961 16.4004H6.40039V11.5996H1.59961V16.4004ZM11.5996 16.4004H16.4004V11.5996H11.5996V16.4004ZM7.2002 0C7.64187 0.000105366 7.99989 0.358132 8 0.799805V7.2002C7.99989 7.64187 7.64187 7.99989 7.2002 8H0.799805C0.358132 7.99989 0.000105366 7.64187 0 7.2002V0.799805C0.000105527 0.358132 0.358132 0.000105527 0.799805 0H7.2002ZM17.2002 0C17.6419 0.000105366 17.9999 0.358132 18 0.799805V7.2002C17.9999 7.64187 17.6419 7.99989 17.2002 8H10.7998C10.3581 7.99989 10.0001 7.64187 10 7.2002V0.799805C10.0001 0.358132 10.3581 0.000105527 10.7998 0H17.2002ZM1.59961 6.40039H6.40039V1.59961H1.59961V6.40039ZM11.5996 6.40039H16.4004V1.59961H11.5996V6.40039Z" fill="#33363D"/>
</svg>
