<svg width="20" height="20" viewBox="0 0 20 20" fill="none" xmlns="http://www.w3.org/2000/svg">
<path d="M10 1.6665C14.6023 1.6665 18.333 5.39717 18.333 9.99951C18.333 14.6018 14.6023 18.3325 10 18.3325C5.39762 18.3325 1.66699 14.6018 1.66699 9.99951C1.66704 5.39717 5.39765 1.6665 10 1.6665ZM10 2.99951C6.13403 2.99951 3.00004 6.13355 3 9.99951C3 13.8655 6.13401 16.9995 10 16.9995C13.866 16.9995 17 13.8655 17 9.99951C17 6.13356 13.8659 2.99951 10 2.99951ZM9.99902 5.5835C10.3671 5.5835 10.6659 5.88143 10.666 6.24951V9.3335H13.75C14.118 9.33372 14.416 9.63243 14.416 10.0005C14.4158 10.3683 14.1178 10.6663 13.75 10.6665H9.99902C9.63115 10.6663 9.33327 10.3683 9.33301 10.0005V6.24951C9.33314 5.88154 9.63106 5.58367 9.99902 5.5835Z" fill="#33363D"/>
</svg>
