<svg width="20" height="22" viewBox="0 0 20 22" fill="none" xmlns="http://www.w3.org/2000/svg">
<path d="M10 0.362793C10.5523 0.362793 11 0.810508 11 1.36279V3.06396C14.6183 3.51528 17.484 6.38125 17.9355 9.99951L19 10.0005C19.5523 10.0005 20 10.4482 20 11.0005C19.9997 11.5525 19.5521 12.0005 19 12.0005L17.9355 11.9995C17.4844 15.6182 14.6186 18.4837 11 18.9351V20.6372C10.9999 21.1894 10.5522 21.6372 10 21.6372C9.44776 21.6372 9.00007 21.1894 9 20.6372V18.9351C5.38172 18.4837 2.51601 15.6187 2.06445 12.0005H1C0.447878 12.0005 0.000263794 11.5525 0 11.0005C0 10.4482 0.447715 10.0005 1 10.0005H2.06445C2.51562 6.38178 5.38135 3.51532 9 3.06396V1.36279C9 0.810508 9.44772 0.362793 10 0.362793ZM10 5.00049C6.68629 5.00049 4 7.68678 4 11.0005C4.00026 14.314 6.68645 17.0005 10 17.0005C13.3135 17.0005 15.9997 14.314 16 11.0005C16 7.68678 13.3137 5.00049 10 5.00049ZM10 7.00049C12.2091 7.00049 14 8.79135 14 11.0005C13.9997 13.2094 12.209 15.0005 10 15.0005C7.79102 15.0005 6.00026 13.2094 6 11.0005C6 8.79135 7.79086 7.00049 10 7.00049ZM10 9.00049C8.89543 9.00049 8 9.89592 8 11.0005C8.00026 12.1048 8.89559 13.0005 10 13.0005C11.1044 13.0005 11.9997 12.1048 12 11.0005C12 9.89592 11.1046 9.00049 10 9.00049Z" fill="#3C5799"/>
</svg>
