<svg width="18" height="18" viewBox="0 0 18 18" fill="none" xmlns="http://www.w3.org/2000/svg">
<path fill-rule="evenodd" clip-rule="evenodd" d="M4.65002 6.00002C4.65002 5.25444 5.25444 4.65002 6.00002 4.65002H14.4C15.1456 4.65002 15.75 5.25444 15.75 6.00002V14.4C15.75 15.1456 15.1456 15.75 14.4 15.75H6.00002C5.25444 15.75 4.65002 15.1456 4.65002 14.4V6.00002ZM6.00002 5.85002C5.91718 5.85002 5.85002 5.91718 5.85002 6.00002V14.4C5.85002 14.4829 5.91718 14.55 6.00002 14.55H14.4C14.4829 14.55 14.55 14.4829 14.55 14.4V6.00002C14.55 5.91718 14.4829 5.85002 14.4 5.85002H6.00002Z" fill="#33363D"/>
<path fill-rule="evenodd" clip-rule="evenodd" d="M2.25061 3.59988C2.25061 2.85429 2.85503 2.24988 3.60061 2.24988H13.65C13.9814 2.24988 14.25 2.51851 14.25 2.84988C14.25 3.18125 13.9814 3.44988 13.65 3.44988H3.60061C3.51777 3.44988 3.45061 3.51704 3.45061 3.59988V13.65C3.45061 13.9814 3.18198 14.25 2.85061 14.25C2.51924 14.25 2.25061 13.9814 2.25061 13.65V3.59988Z" fill="#33363D"/>
</svg>
