<svg width="24" height="24" viewBox="0 0 24 24" fill="none" xmlns="http://www.w3.org/2000/svg">
<path d="M12.7707 2.77886C12.7707 2.34871 12.422 2 11.9918 2C11.5617 2 11.2129 2.34871 11.2129 2.77886V5.39292C11.2129 5.82307 11.5617 6.17178 11.9918 6.17178C12.422 6.17178 12.7707 5.82307 12.7707 5.39292V2.77886Z" fill="#33363D"/>
<path d="M4.10491 4.07271C3.78711 3.78282 3.29448 3.80544 3.00459 4.12324C2.7147 4.44103 2.73732 4.93366 3.05512 5.22355L5.21806 7.19656C5.53586 7.48645 6.02849 7.46382 6.31838 7.14603C6.60827 6.82823 6.58565 6.3356 6.26785 6.04571L4.10491 4.07271Z" fill="#33363D"/>
<path d="M20.9283 5.22354C21.2461 4.93364 21.2687 4.44102 20.9788 4.12322C20.6889 3.80543 20.1963 3.78282 19.8785 4.07272L17.7157 6.04572C17.3979 6.33562 17.3753 6.82825 17.6652 7.14604C17.9551 7.46383 18.4477 7.48644 18.7655 7.19655L20.9283 5.22354Z" fill="#33363D"/>
<path d="M17.8666 14.5C18.5372 14.5 19.0173 13.8535 18.8246 13.2112L17.6233 9.2067C17.4962 8.78324 17.1065 8.49324 16.6644 8.49324H7.34196C6.89986 8.49324 6.5101 8.78324 6.38306 9.20669L5.18171 13.2112C4.98901 13.8535 5.46912 14.5 6.13973 14.5H17.8666Z" fill="#33363D"/>
<path d="M20.0205 21.0003H3.9866C3.37855 21.0003 3.07453 21.0003 2.87161 20.8734C2.6939 20.7624 2.5645 20.5885 2.50916 20.3863C2.44598 20.1555 2.53334 19.8643 2.70806 19.2819L3.358 17.1154C3.45151 16.8037 3.49827 16.6478 3.58682 16.5295C3.68374 16.3999 3.81626 16.3013 3.96823 16.2457C4.10706 16.1949 4.26978 16.1949 4.59524 16.1949H19.4119C19.7373 16.1949 19.9001 16.1949 20.0389 16.2457C20.1909 16.3013 20.3234 16.3999 20.4203 16.5295C20.5088 16.6479 20.5556 16.8037 20.6491 17.1154L21.2991 19.2819C21.4738 19.8643 21.5611 20.1555 21.498 20.3863C21.4426 20.5885 21.3132 20.7624 21.1355 20.8734C20.9326 21.0003 20.6286 21.0003 20.0205 21.0003Z" fill="#33363D"/>
</svg>
