<svg width="20" height="19" viewBox="0 0 20 19" fill="none" xmlns="http://www.w3.org/2000/svg">
<path d="M10.282 0.778862C10.282 0.348708 9.93332 0 9.50316 0C9.07301 0 8.7243 0.348708 8.7243 0.778862V3.39292C8.7243 3.82307 9.07301 4.17178 9.50316 4.17178C9.93332 4.17178 10.282 3.82307 10.282 3.39292V0.778862Z" fill="white"/>
<path d="M1.61626 2.07271C1.29846 1.78282 0.805833 1.80544 0.515943 2.12324C0.226052 2.44103 0.248676 2.93366 0.566474 3.22355L2.72942 5.19656C3.04721 5.48645 3.53984 5.46382 3.82973 5.14603C4.11962 4.82823 4.097 4.3356 3.7792 4.04571L1.61626 2.07271Z" fill="white"/>
<path d="M18.4397 3.22354C18.7575 2.93364 18.7801 2.44102 18.4902 2.12322C18.2003 1.80543 17.7077 1.78282 17.3899 2.07272L15.227 4.04572C14.9092 4.33562 14.8866 4.82825 15.1765 5.14604C15.4664 5.46383 15.959 5.48644 16.2768 5.19655L18.4397 3.22354Z" fill="white"/>
<path d="M15.378 12.5C16.0486 12.5 16.5287 11.8535 16.336 11.2112L15.1346 7.2067C15.0076 6.78324 14.6178 6.49324 14.1757 6.49324H4.85332C4.41121 6.49324 4.02145 6.78324 3.89441 7.20669L2.69306 11.2112C2.50036 11.8535 2.98047 12.5 3.65109 12.5H15.378Z" fill="white"/>
<path d="M17.5319 19.0003H1.49795C0.889903 19.0003 0.585878 19.0003 0.382961 18.8734C0.205248 18.7624 0.075856 18.5885 0.0205169 18.3863C-0.0426704 18.1555 0.0446901 17.8643 0.219411 17.2819L0.869349 15.1154C0.962867 14.8037 1.00963 14.6478 1.09817 14.5295C1.19509 14.3999 1.32761 14.3013 1.47958 14.2457C1.61841 14.1949 1.78114 14.1949 2.10659 14.1949H16.9232C17.2487 14.1949 17.4114 14.1949 17.5502 14.2457C17.7022 14.3013 17.8347 14.3999 17.9317 14.5295C18.0202 14.6479 18.067 14.8037 18.1605 15.1154L18.8104 17.2819C18.9851 17.8643 19.0725 18.1555 19.0093 18.3863C18.954 18.5885 18.8246 18.7624 18.6469 18.8734C18.4439 19.0003 18.1399 19.0003 17.5319 19.0003Z" fill="white"/>
</svg>
