<svg width="16" height="16" viewBox="0 0 16 16" fill="none" xmlns="http://www.w3.org/2000/svg">
<path fill-rule="evenodd" clip-rule="evenodd" d="M4.5601 14.1335L4.5601 11.4378C3.84874 11.212 3.33331 10.5462 3.33331 9.76004C3.33331 8.97389 3.84874 8.30813 4.5601 8.08226V1.86671C4.5601 1.57216 4.79888 1.33337 5.09344 1.33337C5.38799 1.33337 5.62677 1.57216 5.62677 1.86671V8.08234C6.338 8.30829 6.85331 8.97399 6.85331 9.76004C6.85331 10.5461 6.338 11.2118 5.62677 11.4377L5.62677 14.1335C5.62677 14.4281 5.38799 14.6668 5.09344 14.6668C4.79888 14.6668 4.5601 14.4281 4.5601 14.1335ZM4.39998 9.76004C4.39998 10.143 4.7104 10.4534 5.09331 10.4534C5.47623 10.4534 5.78665 10.143 5.78665 9.76004C5.78665 9.37712 5.47623 9.06671 5.09331 9.06671C4.7104 9.06671 4.39998 9.37712 4.39998 9.76004Z" fill="#256EF4"/>
<path fill-rule="evenodd" clip-rule="evenodd" d="M11.6268 4.21564C12.338 4.44159 12.8533 5.10729 12.8533 5.89334C12.8533 6.6794 12.338 7.3451 11.6268 7.57104V14.2668C11.6268 14.5614 11.388 14.8001 11.0934 14.8001C10.7989 14.8001 10.5601 14.5614 10.5601 14.2668V7.57112C9.84874 7.34525 9.33331 6.67949 9.33331 5.89334C9.33331 5.10719 9.84874 4.44143 10.5601 4.21556V2.00001C10.5601 1.70546 10.7989 1.46667 11.0934 1.46667C11.388 1.46667 11.6268 1.70546 11.6268 2.00001V4.21564ZM11.0933 6.58668C10.7104 6.58668 10.4 6.27626 10.4 5.89334C10.4 5.51042 10.7104 5.20001 11.0933 5.20001C11.4762 5.20001 11.7866 5.51042 11.7866 5.89334C11.7866 6.27626 11.4762 6.58668 11.0933 6.58668Z" fill="#256EF4"/>
</svg>
