<?xml version="1.0" encoding="UTF-8"?>
<svg id="_레이어_1" data-name="레이어 1" xmlns="http://www.w3.org/2000/svg" viewBox="0 0 352 355">
  <defs>
    <style>
      .cls-1 {
        fill: #0177f5;
        stroke: #afafaf;
        stroke-miterlimit: 10;
      }
    </style>
  </defs>
  <polygon class="cls-1" points="141.45 135.53 143.53 136.03 143.72 135.88 141.45 135.53"/>
  <path class="cls-1" d="M148.22,36.13l1.87,3.75c.05.11.13.19.23.26l4.48,2.8.03-.02-.53-2.1c-.05-.22,0-.45.17-.61l1.53-1.53c.23-.23.55-.34.87-.31.32.03.61.21.79.48l1.02,1.54c.08.12.19.21.33.25l.16.05c.28.09.6-.02.75-.28l1.32-2.2c.17-.29.46-.48.79-.52.33-.04.66.07.9.31l2.19,2.19c.15.15.21.35.18.56l-.57,3.41c-.03.2.03.41.18.56l.86.86c.25.25.65.25.9,0l.94-.94c.12-.12.28-.19.45-.19h4.49c.22,0,.43.12.55.31l2.23,3.72c.07.12.1.26.09.39l-.38,3.65c-.04.38.26.7.63.7h3.03c.27,0,.52.18.61.44l.57,1.71c.05.15.15.27.29.35l4.38,2.5c.2.11.32.33.32.55v5.21c0,.21-.1.4-.27.52l-4.29,3.07c-.15.1-.24.27-.26.44l-.44,3.75c-.01.11-.05.21-.11.29l-2.07,2.92c-.09.13-.13.29-.11.45l.03.2c.04.32.31.56.63.56h1.76c.41,0,.78.23.97.6.18.37.14.8-.1,1.13l-1.86,2.48c-.04.05-.07.12-.09.18l-.12.35c-.1.3.04.63.32.77l1.01.5c.09.04.19.07.29.07h2.41c.11,0,.21.03.31.08l7.24,3.95c.07.04.15.06.23.07l5.27.66c.17.02.33.11.43.25l2.31,3.05c.2.26.27.61.18.93s-.31.59-.62.72l-3.4,1.47c-.11.05-.21.13-.27.23l-.32.47c-.07.11-.11.23-.11.36v2.23c0,.11-.03.22-.08.31l-11.52,20.6c-.13.22-.1.5.06.71l1,1.28c.16.2.42.29.67.22l5.81-1.58c.13-.03.24-.11.32-.21l3.27-3.92c.2-.24.54-.3.81-.14l2.57,1.48c.2.11.32.32.32.55v1.69c0,.31.23.58.53.63l1.86.31c.18.03.36-.02.5-.13l.78-.63c.15-.12.24-.3.24-.5v-4.64c0-.28.19-.54.46-.61l5.05-1.44c.38-.11.78,0,1.06.27l2.16,2.14c.12.12.19.28.19.45v2.24l.13.07,2.96-2.37c.11-.09.25-.14.4-.14h2.34c.13,0,.25-.04.35-.11l1.77-1.18c.16-.11.37-.14.56-.07l2.33.78c.09.03.18.08.25.15l.71.71c.16.16.4.23.63.16l1.84-.53c.1-.03.21-.03.32,0l3.49.8c.3.07.55.26.7.52.15.27.18.58.08.87l-.72,2.16c-.04.12-.12.23-.22.31l-1.99,1.5.3.45,2.74-1.1c.16-.06.34-.06.5.01l3.32,1.5c.15.07.27.19.33.35l.71,1.78c.1.24.33.4.59.4h3.68c.11,0,.22.03.32.08l4.43,2.53c.1.06.21.08.32.08h4.55c.24,0,.46.14.57.35l.44.89c.08.17.24.29.42.33l4.04,1.01.26-.26-1.59-2.12c-.12-.15-.16-.35-.11-.54l.79-3.16c.06-.23.24-.41.46-.46l5.66-1.42c.49-.12,1,.11,1.23.57l1.05,2.09c.07.15.2.26.35.31l1.68.61c.25.09.42.33.42.6v.2c0,.4.36.7.76.63l1.64-.31c.07-.01.15-.01.23,0l7.54,1.29c.1.02.21,0,.31-.02l3.82-1.27c.16-.05.34-.04.49.03l4.6,2.3c.31.15.44.52.3.84l-1.22,2.67c-.1.23-.33.37-.58.37h-3.23c-.2,0-.39.09-.51.26l-1,1.33c-.12.16-.16.37-.1.56l.91,3.18c.05.17.17.32.33.4l2.19,1.1c.15.08.27.21.32.37l.7,2.14c.06.17.19.32.36.39l1.72.73c.17.07.37.07.54-.02l2.22-1.11c.2-.1.45-.09.64.04l2.44,1.62c.18.12.28.32.28.53v4.35l-.02.18-1.18,4.15c-.04.15-.03.32.04.46l1.12,2.24c.06.13.08.27.06.41l-.48,2.44c-.06.31.11.61.4.72l2.31.87c.19.07.4.05.57-.06l2.15-1.35c.18-.11.39-.13.59-.05l.6.25c.42.18.88-.13.88-.59h0c0-.17.07-.33.19-.45l2.35-2.35c.11-.11.17-.24.18-.39l.64-6.99c.01-.13-.02-.27-.09-.39l-3.87-6.44c-.05-.09-.08-.19-.09-.29l-.66-10.51c0-.09,0-.19.04-.28l1.21-3.03c.06-.14.06-.3.01-.44l-.5-1.5c-.06-.19-.21-.34-.4-.4l-1.44-.48c-.18-.06-.33-.2-.4-.38l-1.88-5.01c-.03-.07-.04-.15-.04-.22v-5.15c0-.09-.02-.18-.05-.26l-2.55-5.75c-.06-.14-.17-.25-.3-.31l-2.2-1.1c-.19-.09-.32-.27-.35-.48l-.58-4.07c-.03-.21-.16-.39-.35-.48l-3.4-1.7c-.22-.11-.35-.33-.35-.57v-2.72c0-.17-.07-.33-.19-.45l-2.45-2.45s-.08-.1-.11-.15l-5.93-11.21c-.07-.12-.09-.27-.07-.4l.59-3.53c.03-.2-.03-.4-.17-.54l-11.84-12.5c-.06-.07-.11-.15-.14-.24l-1.26-3.78c-.03-.09-.08-.18-.15-.25l-6.46-6.46c-.12-.12-.19-.28-.19-.45v-3.43c0-.22-.12-.43-.31-.55l-2.9-1.74c-.11-.07-.2-.16-.25-.28l-9.94-21.21c-.07-.15-.08-.32-.03-.47l.48-1.45c.07-.21.03-.44-.12-.61l-3.06-3.67c-.06-.07-.11-.16-.13-.25l-.63-2.52s-.02-.06-.03-.09l-4.62-11.22c-.06-.14-.17-.26-.3-.33l-3.55-1.78c-.18-.09-.39-.09-.57,0l-.63.31c-.26.13-.4.41-.34.7l.57,2.84s.01.08.01.13v3.82c0,.11-.03.23-.09.32l-6.59,11.2c-.05.09-.12.16-.21.21l-7.09,4.51c-.13.08-.29.12-.45.09l-11.76-1.96c-.1-.02-.21,0-.31.02l-1.78.59c-.07.02-.13.03-.2.03h-1.75c-.12,0-.23-.03-.33-.09l-2.97-1.78c-.16-.1-.35-.12-.53-.06l-5.58,1.86c-.14.05-.3.04-.44-.01l-3.05-1.22c-.08-.03-.16-.05-.24-.05h-3.09c-.11,0-.22.03-.32.08l-4.33,2.48c-.16.09-.35.11-.52.05l-3.73-1.24s-.07-.02-.11-.03l-4.43-.63c-.16-.02-.31.01-.44.1l-1.47.98c-.21.14-.49.14-.71,0l-1.51-1.01c-.1-.07-.23-.11-.35-.11h-2.32c-.13,0-.25.04-.35.11l-1.7,1.14c-.1.07-.23.11-.35.11h-2.3c-.13,0-.26.04-.37.12l-9.07,6.48c-.14.1-.24.26-.26.43l-.13.93c-.04.27.1.53.33.65l2.49,1.31c.12.06.21.16.27.28Z"/>
  <path class="cls-1" d="M113.85,94.53l-.67.87c-.2.26-.56.36-.87.23l-.78-.32c-.22-.09-.47-.07-.67.06l-1.17.73c-.13.08-.23.2-.29.33l-.91,2.1s-.01.02-.02.04l-.33.67c-.18.37-.03.81.33,1l.44.22c.16.08.34.1.51.06l2.2-.55c.15-.04.31-.03.46.03l1.19.48c.18.07.37.07.55,0l1.27-.51c.09-.04.18-.09.25-.17l3.73-3.73c.14-.14.22-.33.22-.52v-1.19c0-.32-.2-.6-.5-.7l-2.47-.86c-.25-.09-.53-.03-.73.14l-1.01.88s-.03.02-.04.03l-.62.62s-.04.05-.06.07Z"/>
  <path class="cls-1" d="M107.19,74.55l.56,2.8c.03.17,0,.34-.07.49l-1.46,2.8c-.07.14-.1.3-.07.46l.2,1.29c.06.36.37.63.73.63h3.83c.14,0,.29.04.41.12l1.3.85c.33.21.77.14,1-.18l1.46-1.95c.1-.13.15-.28.15-.45v-2.69s0-.08,0-.12l-1.3-8.17c-.03-.17-.11-.33-.24-.44l-4.91-4.3c-.18-.16-.43-.22-.67-.16l-1.76.44c-.33.08-.56.38-.56.72v.48c0,.1-.02.19-.06.29l-1.72,4.14c-.14.34-.01.73.3.92l2.55,1.53c.18.11.31.29.35.49Z"/>
  <path class="cls-1" d="M127.46,88.01l-4.51-1.49c-.22-.07-.46-.04-.65.09l-1.22.85c-.13.09-.23.23-.28.38l-1.13,3.66c-.06.21-.03.43.09.61l3.5,5.34c.12.19.33.31.56.33l4.51.33c.28.02.54-.12.68-.35l1.06-1.78c.14-.24.14-.53-.01-.76l-1.42-2.23c-.08-.13-.12-.29-.11-.44l.16-2.2c0-.12-.01-.24-.06-.35l-.7-1.6c-.08-.19-.24-.33-.44-.4Z"/>
  <path class="cls-1" d="M98.35,71.39l2.5-1.76c.13-.09.27-.13.43-.13h.81c.19,0,.38-.08.52-.21l.91-.9c.14-.14.22-.33.22-.53v-.47c0-.31-.19-.59-.48-.7l-1.1-.41c-.27-.1-.58-.04-.79.17l-.06.06c-.17.17-.42.25-.66.21l-3.13-.57c-.11-.02-.23-.02-.34.02l-1.88.53c-.22.06-.4.22-.49.44l-.99,2.48c-.13.33-.01.7.28.89l1.34.89c.12.08.27.12.41.12h2.06c.15,0,.3-.05.43-.13Z"/>
  <path class="cls-1" d="M105.33,78.27l.41-1.22c.03-.08.04-.16.04-.23v-.54c0-.22-.1-.43-.27-.57l-1.62-1.34c-.09-.07-.16-.17-.2-.27l-.94-2.12c-.12-.27-.39-.44-.68-.44h-.33c-.24,0-.46.11-.6.31l-.61.85c-.09.13-.14.28-.14.43v2.07c0,.1.02.2.06.29l.42,1c.12.27.39.45.68.45h.46c.41,0,.74.33.74.74h0c0,.32.21.61.52.71l1.15.36c.39.12.8-.09.93-.47Z"/>
  <polygon class="cls-1" points="141.45 135.53 137.68 134.61 138.2 135.03 141.45 135.53"/>
  <path class="cls-1" d="M11.91,345.35l.5-3.53c.03-.2.13-.38.28-.51l3.91-3.35c.13-.11.22-.26.26-.43l.49-1.94c.05-.18.15-.35.31-.46l2.03-1.52c.14-.11.32-.17.5-.17h1.76c.21,0,.41-.08.57-.23l1.55-1.46c.12-.11.28-.19.44-.22l7.61-1.17c.13-.02.26-.07.37-.16l2.12-1.59c.13-.09.28-.15.43-.16l7.77-.6s.07,0,.1-.01l4.97-1.03c.2-.04.41,0,.58.1l2.81,1.64c.14.08.29.12.45.11l1.73-.07c.17,0,.34.04.48.13l1.27.8c.24.15.38.42.38.7v2.04c0,.27.13.52.35.67l1.75,1.25c.38.27.46.8.18,1.17l-1.1,1.48s-.05.07-.09.1l-2.5,2.44s-.09.1-.13.16l-3.13,5.04c-.14.23-.38.37-.65.39l-3.06.22c-.25.02-.48.15-.62.35l-.67.95c-.13.18-.32.3-.54.34l-3.93.65c-.11.02-.21.06-.3.11l-2.81,1.74c-.1.06-.22.1-.34.12l-6.09.73c-.16.02-.32,0-.47-.08l-1.73-.86c-.32-.16-.7-.1-.96.16h0c-.13.13-.3.21-.48.24l-4.32.58s-.07,0-.11,0h-2c-.32,0-.62.19-.75.48l-.56,1.21c-.14.29-.43.48-.75.48h-1.89c-.31,0-.59-.17-.74-.45l-1.78-3.42c-.06-.12-.15-.22-.26-.29l-2.91-2.06c-.25-.18-.39-.49-.34-.79Z"/>
  <path class="cls-1" d="M100.48,160.77s2.41-2.23,3.76-1.56,2.7.68,1.35,2.7c-1.35,2.03.87,4.48,2.46,5.95,1.59,1.48,2.94,10.93.91,9.58s-4.73-2.7-6.08-2.7-.68-4.73-.68-6.75-2.12-4.99-1.73-7.22Z"/>
  <path class="cls-1" d="M242.46,127.66c-.12,0-.24-.03-.34-.09l-4.41-2.52c-.11-.06-.22-.09-.34-.09h-4.52c-.28,0-.54-.17-.65-.44l-.9-2.28c-.07-.17-.2-.3-.36-.38l-1.64-.74c-.17-.08-.37-.08-.54-.01l-2.97,1.19c-.31.12-.65.01-.84-.26l-1.73-2.59c-.2-.31-.13-.72.16-.94l2.72-2.04.19-.58-1.77-.41c-.11-.03-.23-.02-.35,0l-2.48.71c-.24.07-.5,0-.68-.18l-1.22-1.21c-.08-.08-.17-.13-.27-.17l-.8-.27c-.2-.07-.43-.04-.61.08l-1.4.93c-.11.08-.25.12-.39.12h-2.2c-.16,0-.31.05-.43.15l-3.08,2.47c-.21.17-.5.2-.75.08l-1.79-.89c-.24-.12-.38-.36-.38-.62v-2.22c0-.19-.07-.36-.21-.49l-.76-.75c-.18-.18-.44-.24-.68-.17l-2.44.7c-.3.09-.5.36-.5.67v3.98c0,.21-.1.41-.26.54l-2.31,1.85c-.15.12-.35.18-.55.14l-4.55-.76c-.34-.06-.58-.35-.58-.69v-2.19c0-.25-.13-.48-.35-.6l-.35-.2-2.87,3.45c-.09.11-.21.19-.35.23l-7.55,2.06c-.42.12-.87-.03-1.13-.37l-1.41-1.8-.13.23-3.34,8.96c-.1.27-.36.45-.65.45h-1.66c-.18,0-.36.07-.49.2l-.71.71s-.06.07-.09.11l-1.32,1.98c-.07.11-.18.2-.3.25l-1.51.65c-.26.11-.42.36-.42.64v2.81c0,.33-.24.62-.56.68l-6.79,1.34c1.1,1.98,2.28,3.83,3.33,5.25,1.04,1.41,1.4,3.19,1,4.89-.69,2.9-1.5,3.73-2.98,5.08-.17.16-.36.33-.56.51.61,1.72.48,2.48-.44,3.57-.16.2-.34.4-.52.68-.36.55-.44,1.24-.19,1.85.88,2.22,2.01,2.89,3.21,3.59,1.48.87,3.16,1.86,3.16,5.53,0,.38.78,1.3,1.29,1.92.48.57,1,1.19,1.42,1.86,1.85-.95,2.66-.24,5.06,2.16,1.6,1.6,1.81,2.69.75,4.02-.35.44-.62.79-.43,1.85.24,1.34-.01,2.37-.25,3.37-.33,1.35-.67,2.75.21,5.39.1.3.67.68,1.27,1.08,1.73,1.16,4.35,2.9,4.86,7.95.14,1.38.63,3.09,1.24,4.78l1.59-.16c.38-.04.76.13.98.44l.92,1.28c.07.09.15.17.25.22l2.81,1.41c.21.1.45.1.66-.02l4.03-2.3c.15-.08.32-.11.48-.08l3.7.74c.21.04.39.18.49.37l.11.22c.15.3.49.45.81.36l1.42-.39c.22-.06.39-.22.47-.43l1.57-4.32c.06-.17.19-.31.36-.39l1.63-.77c.18-.09.32-.25.37-.44l.49-1.72c.08-.28-.03-.59-.27-.76l-1.68-1.18c-.31-.22-.39-.64-.18-.95l1.67-2.51c.13-.19.35-.31.58-.31h2.37c.46,0,.79-.44.67-.88l-.34-1.22c-.04-.15-.13-.28-.25-.37l-1.74-1.31c-.12-.09-.27-.14-.42-.14h-1.35c-.23,0-.45.12-.58.31l-1.26,1.91c-.16.24-.42.41-.71.47-.29.05-.59-.01-.83-.19l-3.09-2.23c-.16-.12-.37-.16-.57-.11l-1.88.45c-.16.04-.33.02-.48-.06l-2.96-1.5c-.31-.16-.45-.51-.35-.84l1.51-4.52c.06-.17.18-.32.35-.4l1.33-.67c.33-.17.47-.56.33-.9l-.88-2c-.05-.11-.07-.24-.05-.36l.88-7.68c.03-.25.19-.46.41-.56l1.31-.57c.28-.12.45-.42.41-.72v-.08c-.04-.24-.19-.44-.4-.55l-4.74-2.23c-.24-.11-.4-.36-.4-.63v-3.09c0-.33.23-.61.55-.68l2.34-.5c.49-.1.71-.67.42-1.08l-.76-1.09c-.18-.26-.16-.62.05-.86l1.84-2.05c.13-.15.32-.23.52-.23h3.11c.26,0,.5-.15.62-.38l1.04-2.03c.16-.31.51-.45.84-.34l4.84,1.61c.34.11.72-.05.86-.39l.57-1.34c.13-.31.03-.66-.25-.85l-2.83-1.9c-.25-.17-.36-.48-.28-.77l1.43-5c.09-.31.32-.57.62-.7.3-.13.64-.11.93.04l1.2.64c.29.15.65.09.86-.16l1.56-1.84c.23-.27.62-.33.92-.13l2.24,1.49c.4.27.94.06,1.06-.41l.81-3.25c.08-.31.36-.53.67-.53h3.59c.24,0,.47.13.59.33l1.46,2.38c.08.13.2.23.33.28l3.07,1.23c.26.11.44.36.44.65v1.47c0,.36.27.65.62.69l3.12.33c.17.02.35-.03.49-.14l1.43-1.08c.18-.13.28-.34.28-.56v-1.04c0-.26-.15-.5-.38-.62l-2.41-1.22c-.26-.13-.46-.37-.55-.65-.08-.28-.05-.59.1-.85l3.42-5.97c.05-.09.12-.17.21-.23l8.21-5.66s.07-.04.11-.06l2.18-.99h-3.49Z"/>
  <path class="cls-1" d="M74.11,311.12c-.05-.32-.3-.58-.62-.65l-1.46-.33c-.4-.09-.81.14-.94.53l-.32.96c-.08.24-.27.43-.51.51l-1.1.37c-.33.11-.55.42-.55.76v.46c0,.28.14.53.37.68l3.14,1.99c.32.2.73.16,1-.11l1.28-1.28c.18-.18.27-.44.22-.7l-.52-3.18Z"/>
  <path class="cls-1" d="M339.79,76.16c-.03-.19-.17-.34-.36-.38l-.85-.19c-.23-.05-.47.08-.55.31l-.19.56c-.05.14-.16.25-.3.3l-.64.21c-.19.06-.32.24-.32.44v.27c0,.16.08.31.22.4l1.83,1.16c.19.12.43.09.58-.06l.75-.75c.11-.11.16-.26.13-.41l-.3-1.85Z"/>
  <path class="cls-1" d="M78.76,295.36l2.26.36c.27.04.55-.06.73-.27l1.54-1.77c.29-.33.8-.37,1.13-.08l.74.63c.15.13.33.19.52.19h.51v-1.07c0-.44.36-.8.8-.8h.42c.44,0,.8-.36.8-.8v-.98c0-.36-.24-.68-.59-.77l-3.12-.88c-.23-.06-.47-.03-.66.1l-5.41,3.61c-.22.15-.36.4-.36.67v1.05c0,.39.29.73.68.79Z"/>
  <path class="cls-1" d="M83.97,281.4l3.02,1.32c.33.14.71.05.94-.22l1.41-1.68c.12-.14.19-.33.19-.52v-3.49c0-.11.02-.22.07-.33l.82-1.86c.24-.53-.15-1.13-.73-1.13h-2.09c-.25,0-.48.11-.63.31l-3.3,4.2c-.11.14-.17.32-.17.5v2.16c0,.32.19.61.48.74Z"/>
  <path class="cls-1" d="M139.63,345.18c-.06-.11-.09-.24-.09-.37v-1.61c0-.44-.36-.8-.8-.8h-1.56c-.21,0-.41.08-.56.23l-1.6,1.56c-.16.16-.25.37-.24.59l.04,2.02c0,.21.09.41.25.56l1.58,1.52c.18.17.43.25.67.22l1.9-.27c.33-.05.59-.29.67-.62l.33-1.47c.04-.18.02-.38-.07-.55l-.52-1.01Z"/>
  <path class="cls-1" d="M200.66,212.05l-1.89-3.78c-.11-.22-.32-.38-.56-.43l-1.78-.36c-.19-.04-.39,0-.56.09l-4.24,2.43c-.23.13-.52.14-.76.02l-4.25-2.12c-.12-.06-.22-.14-.29-.25l-.58-.81c-.17-.23-.45-.36-.73-.33l-1.12.11c-.18.02-.36.1-.49.23l-2.27,2.27c-.09.09-.2.15-.31.19l-4.19,1.4c-.14.05-.29.05-.43.02l-6.15-1.37c-.28-.06-.53-.24-.68-.49-.15-.25-.2-.55-.13-.83l.35-1.41c.08-.33-.05-.67-.33-.86l-3.05-2.03c-.18-.12-.31-.32-.35-.54l-.53-3.2c-.04-.26-.21-.48-.45-.59l-.23-.11c-.4-.19-.88-.02-1.07.38l-1.16,2.46c-.11.23-.31.39-.56.44l-9.59,2.06c-.36.07-.72-.03-.98-.28l-1.43-1.4c-.15-.15-.24-.36-.24-.57v-2.79c0-.18-.07-.36-.2-.49l-.23-.23c-.15-.15-.35-.22-.56-.2l-12,1.2c-.18.02-.36.1-.49.23l-.44.44c-.12.12-.2.27-.22.44l-.71,4.36c-.06.39-.4.68-.79.68h-6.13s-.06,0-.08,0l-3.27.34c-.29.03-.53.24-.6.52l-.06.23c-.08.31-.36.53-.68.53h-3.09c-.19,0-.37.07-.52.19l-.35.3c-.14.12-.33.19-.52.19h-3.44c-.22,0-.42.09-.57.24l-.53.54c-.31.31-.31.82,0,1.13l.55.55c.15.15.35.24.57.24h2.78c.22,0,.43.09.59.25l.73.78c.19.2.26.48.19.75l-.48,1.93c-.05.22-.01.45.11.64l.83,1.25c.19.29.55.42.88.33l6.64-1.81c.15-.04.31-.04.47.01l.87.29c.48.16.69.72.45,1.16l-.08.15c-.12.22-.36.35-.61.35h-1.84c-.28,0-.53.14-.68.37l-.66,1.05c-.22.35-.14.8.18,1.06l2.31,1.85c.3.24.39.65.22.99l-.16.33c-.14.27-.41.44-.72.44h-2.41c-.07,0-.14,0-.21-.03l-4.43-1.17c-.34-.09-.69.05-.88.34l-.19.29c-.21.33-.16.76.13,1.03l1.25,1.13c.28.25.34.67.16.99l-2.15,3.77c-.14.25-.41.4-.7.4h-1.63c-.2,0-.4.08-.54.21l-3.36,3.09c-.06.05-.12.09-.18.13l-2.3,1.15c-.19.1-.34.26-.4.46l-.39,1.18c-.11.32,0,.67.26.88l2.72,2.18c.14.11.32.18.5.18h5.32s.08,0,.12,0l3.83-.58c.34-.05.68.12.84.43l.27.53c.1.19.11.41.04.61l-.34,1.01c-.13.4-.55.63-.96.53l-1.77-.44c-.14-.03-.28-.03-.42,0l-2,.57c-.1.03-.2.08-.28.15l-1.53,1.22s-.05.04-.08.05l-5.14,3.21c-.14.09-.26.22-.32.38l-1.19,2.98c-.04.1-.1.19-.18.27l-2.45,2.45c-.09.09-.15.2-.19.31l-.07.21c2.6-.38,4.82-.65,6.36-.65,1.77,0,2.9-.75,3.89-1.42.94-.63,2.37-1.58,3.68-.27,2.2,2.2-1.4,7.75-2.03,8.38-.23.23-.33.45-.34.53.02,0,.14.13.57.27,1.54.51,8.61-1.31,9.93-1.96.12-.14.29-.93.39-1.41.28-1.29.75-3.44,2.82-3.44,1.19,0,1.77-.01,2.1-.09-.23-.39-.59-.91-.84-1.27-1-1.45-1.66-2.4-1.18-3.32.24-.46.71-.73,1.27-.73.34,0,1.11-.15,1.85-.3,1.92-.38,4.3-.86,5.94-.31,2.22.74,3.49,2.86,3.49,5.82,0,.51.2.86.64,1.14.37.23.83.35,1.22.39.08-.22.18-.55.25-.79.34-1.15.76-2.58,2.02-3.2.74-.36,1.61-.35,2.57.04,3.02,1.21,2.28,3.8,1.93,5.04-.05.18-.12.42-.16.6,1.06.79,1,2.35.96,3.51,0,.1,0,.23-.01.35.81.04,1.94.18,3.33.36.37.05.8.1,1.13.14h0c.46-.98,1.53-3.28,4.78-2.63.78.16,1.69.38,2.65.61,2.55.63,6.82,1.67,7.97.91.62-.41.88-.9,1.16-1.42.4-.74,1.14-2.11,3.22-1.42,1.17.39,3.81,1.91,6.05,3.26l.51-2.04c.04-.14.11-.27.21-.37l2.39-2.39c.1-.1.18-.23.21-.37l.29-1.16c.07-.27-.01-.56-.21-.76l-1.38-1.38c-.2-.2-.28-.49-.21-.76l.6-2.4c.03-.13.03-.26,0-.39l-.31-1.24c-.07-.27-.26-.48-.53-.57l-1.2-.4c-.27-.09-.48-.32-.53-.6l-.72-3.62c-.03-.17-.01-.34.06-.49l3.25-7.14c.05-.1.07-.22.07-.33v-5.16c0-.29.15-.55.4-.7l3.92-2.24c.25-.14.4-.41.4-.7v-1.72c0-.21.08-.42.24-.57l1.47-1.47c.08-.08.18-.14.29-.18l4.73-1.77c.2-.07.36-.23.45-.42l2.68-5.9c.1-.22.1-.47-.01-.69Z"/>
  <path class="cls-1" d="M102.47,317.63c-.15-.14-.35-.22-.55-.22h-1.21c-.21,0-.42-.08-.57-.24l-1.22-1.22c-.31-.31-.82-.31-1.14,0l-.04.04c-.24.24-.31.62-.15.93l.33.66c.06.11.08.23.08.36v.72c0,.55-.54.94-1.06.76l-.29-.1c-.22-.07-.46-.05-.65.06l-.43.24c-.17.1-.3.26-.37.44l-.42,1.27c-.09.28-.34.49-.63.54l-3.25.54c-.21.03-.39.15-.52.32l-3.21,4.37c-.19.26-.21.61-.04.89l1.64,2.73c.07.12.11.27.11.41v1.04c0,.39.27.72.65.79l3.08.59c.21.04.42,0,.6-.12l1.43-.95c.21-.14.46-.17.7-.09l1.26.42c.25.08.52.04.73-.11l3.13-2.3c.14-.1.3-.16.48-.16h1.64c.3,0,.58-.17.72-.44l1.04-2.09c.06-.11.08-.23.08-.36v-2.26c0-.16.05-.32.14-.45l1.07-1.58c.09-.13.14-.29.14-.45v-1.48c0-.22-.09-.43-.25-.58l-3.05-2.92Z"/>
  <path class="cls-1" d="M77.69,305.47l.9-1.9c.1-.22.3-.38.53-.44l2.02-.5c.2-.05.38-.18.49-.36l1.08-1.75c.24-.39.11-.9-.29-1.12l-1.2-.67c-.26-.15-.58-.13-.83.03l-1.56,1.04c-.15.1-.32.14-.49.13l-1.38-.08c-.14,0-.28.02-.41.08l-2.07,1.03c-.27.14-.44.41-.44.72v1.77c0,.15.04.29.12.41l1,1.66c.15.24.41.39.69.39h1.14c.31,0,.59-.18.73-.46Z"/>
  <path class="cls-1" d="M87.35,318.02c.47.04.86-.33.86-.8v-.29c0-.33-.17-.64-.46-.81l-.76-.45c-.3-.18-.45-.52-.38-.86l.13-.62c.07-.32-.06-.64-.33-.83l-2.11-1.47c-.42-.3-1.01-.12-1.2.36l-.89,2.21c-.06.15-.07.31-.04.46l.92,4.35c.03.13.09.25.18.36l.99,1.15c.3.35.85.38,1.18.04l.5-.5c.15-.15.24-.35.24-.57v-.98c0-.47.4-.84.86-.8l.3.02Z"/>
  <path class="cls-1" d="M80.97,305.53c-.12-.18-.3-.3-.52-.34l-.58-.11c-.27-.05-.56.04-.75.25l-2.1,2.3c-.19.2-.25.49-.18.75l.32,1.14c.08.28.3.5.59.57l2.07.5c.18.04.38.02.54-.06l.77-.38c.21-.11.37-.3.42-.53l.49-2c.05-.22.01-.45-.11-.64l-.97-1.45Z"/>
  <path class="cls-1" d="M89.49,297.58l2.33-.93c.27-.11.47-.36.5-.66l.22-1.95c.04-.36-.17-.71-.51-.84l-1.41-.54c-.37-.14-.79,0-.99.35l-1.13,1.99c-.17.3-.51.46-.85.39l-.91-.18c-.33-.06-.67.08-.84.37l-.4.65c-.19.31-.14.72.11.98l1.08,1.1c.11.11.18.25.21.39l.25,1.17c.02.11.02.23,0,.34l-.19.9c-.07.3.05.62.29.81l.74.57c.14.11.31.17.49.17h2.08c.22,0,.43-.09.59-.25l1.57-1.67c.14-.15.22-.35.22-.55v-.7c0-.36-.24-.67-.58-.77l-.28-.08c-.33-.1-.69,0-.93.25l-.63.65c-.18.18-.42.29-.68.29-.45,0-.84-.33-.92-.77v-.03c-.02-.1-.02-.2,0-.3l.08-.54c.04-.28.23-.52.5-.63Z"/>
  <path class="cls-1" d="M89.08,313.53c-.43.32-.44.96-.01,1.29l.18.14c.33.25.8.25,1.13,0l1.95-1.47c.11-.08.24-.14.37-.15l1.7-.24c.3-.04.55-.25.65-.53l.39-1.11c.15-.43-.09-.9-.53-1.03l-1.17-.35c-.17-.05-.32-.16-.43-.31l-.81-1.16c-.28-.41-.86-.46-1.22-.11l-1.78,1.74c-.26.26-.32.66-.13.98l.5.86c.21.36.11.81-.22,1.05l-.57.42Z"/>
  <path class="cls-1" d="M159.02,324.69c-.08-.13-.2-.22-.34-.28l-3.09-1.37c-.3-.13-.66-.07-.89.17l-.66.66c-.19.19-.46.27-.73.22l-2.26-.45c-.4-.08-.79.15-.92.53l-.26.77c-.11.34.02.72.32.92l1.16.77c.22.15.36.4.36.67v1.23c0,.39.28.72.66.79l.95.18c.26.05.53-.04.71-.22l.75-.75c.19-.19.46-.27.73-.22l2.53.51c.26.05.54-.03.73-.22l1.25-1.25c.27-.27.31-.7.1-1.02l-1.1-1.62Z"/>
  <path class="cls-1" d="M128.15,331.79c-.06-.13-.15-.24-.26-.33l-2.3-1.65c-.21-.15-.49-.19-.74-.11l-1.07.38c-.28.1-.48.34-.53.63l-.59,3.52s-.01.09-.01.13v1.11c0,.27.14.52.36.67l4.17,2.75c.13.09.28.13.44.13h2.07c.33,0,.63-.21.75-.52l.2-.53c.08-.2.07-.42-.02-.61l-2.48-5.58Z"/>
  <path class="cls-1" d="M309.07,66.81c-.13.06-.24.15-.32.27l-1.61,2.33c-.15.22-.18.49-.09.74l.4,1.06c.1.27.35.47.64.51l3.53.52s.09,0,.13,0l1.11-.02c.27,0,.52-.15.66-.37l2.66-4.22c.08-.13.13-.29.12-.44l-.04-2.07c0-.33-.22-.63-.53-.74l-.53-.19c-.2-.07-.42-.06-.61.03l-5.53,2.59Z"/>
  <path class="cls-1" d="M121.31,344.09c0-.21-.08-.42-.24-.57l-1.42-1.42c-.23-.23-.57-.3-.87-.18l-2.38.95c-.3.12-.5.42-.5.75v.76c0,.26.12.5.33.65l.88.65c.09.07.2.12.32.14l2.6.52c.36.07.71-.1.88-.43l.28-.57c.08-.16.12-.33.12-.5v-.75Z"/>
  <path class="cls-1" d="M118.67,347.5l-1.94-.96c-.11-.06-.23-.08-.36-.08h-1.4c-.38,0-.7.26-.78.63l-.19.87c-.07.33-.29.61-.59.76l-.25.12c-.36.18-.53.59-.4.97l.33.98c.08.24.27.43.51.51l.9.3c.42.14.87-.08,1.01-.5l.22-.63c.12-.33.43-.55.78-.54l1.51.04c.36,0,.68-.22.79-.57l.3-.96c.12-.38-.06-.78-.41-.96Z"/>
  <path class="cls-1" d="M123.81,346.46c.27,0,.52-.14.67-.36l.21-.31-.78-.78c-.31-.31-.82-.31-1.14,0l-.64.64c-.09.09-.16.2-.2.33l-.58,1.83c-.02.08-.04.16-.04.24v2.34c0,.23.1.46.28.61l1.52,1.3c.43.37,1.1.19,1.28-.35l.24-.71c.04-.12.06-.24.06-.36v-1.33c0-.24-.11-.47-.3-.63l-.75-.61c-.19-.15-.3-.38-.3-.63v-1.23h.47Z"/>
  <path class="cls-1" d="M141.35,330.63c-.06-.24-.23-.45-.46-.55l-2.34-1.04c-.22-.1-.47-.09-.68.02l-1.65.82c-.4.2-.56.68-.36,1.08l.17.34c.09.19.25.34.44.44l2.11,1.06c.19.1.41.11.61.04l1.49-.5c.14-.05.28-.13.38-.24l.12-.12c.24-.24.34-.59.26-.92l-.1-.43Z"/>
  <path class="cls-1" d="M132.74,330.83l1.26-.52c.1-.04.18-.1.26-.17l.36-.36c.41-.41.26-1.11-.28-1.32l-.43-.16c-.12-.05-.23-.12-.32-.22l-.23-.26c-.15-.17-.37-.27-.6-.27h-1.13c-.12,0-.25.03-.36.08l-.82.41c-.23.11-.39.33-.43.59l-.5,3.01c-.06.37.14.74.49.88l.5.2c.35.14.74.02.96-.29l.92-1.31c.09-.12.21-.22.35-.28Z"/>
  <path class="cls-1" d="M136.13,336.36s.06-.04.09-.06l1.09-.57c.14-.07.25-.19.33-.32l.46-.84c.23-.42.04-.95-.41-1.13l-1.87-.75c-.21-.08-.44-.08-.64.02l-1.79.83c-.13.06-.27.09-.41.09h-.36c-.41,0-.78.26-.92.65-.15.41,0,.88.35,1.13l2.25,1.6c.28.2.66.2.93,0l.9-.65Z"/>
  <path class="cls-1" d="M255.72,292.07l-.2-.1c-.27-.14-.61-.08-.82.13l-.62.62c-.22.22-.55.27-.82.13l-.68-.34c-.14-.07-.25-.18-.32-.32l-.29-.57c-.16-.32-.06-.71.24-.91l1.18-.79c.2-.13.32-.36.32-.59v-.59c0-.24-.12-.46-.32-.59l-1.18-.79c-.3-.2-.4-.59-.24-.91l.29-.57c.07-.14.18-.25.32-.32l.87-.44c.17-.08.3-.23.36-.41l.49-1.47c.06-.18.05-.38-.04-.55l-.38-.75c-.1-.21-.31-.35-.54-.39l-1.74-.25c-.16-.02-.33.01-.47.09l-1.24.75c-.15.09-.26.22-.31.39l-.25.76-.23.7c-.07.2-.04.41.07.59l.56.93c.17.28.12.64-.11.87l-.84.84c-.08.08-.17.14-.28.17l-1.54.51c-.21.07-.44.04-.62-.08l-1.14-.76c-.33-.22-.77-.13-.99.2l-.76,1.14c-.12.18-.15.41-.08.62l.49,1.46c.05.15.15.28.28.37l1.82,1.22v.68l-.89.45c-.27.14-.61.08-.82-.13l-1.52-1.52c-.09-.09-.21-.16-.33-.19l-2.12-.53c-.24-.06-.5.01-.68.19l-.83.83c-.15.15-.23.36-.21.57l.3,3.26c0,.08,0,.16-.02.24l-.49,1.94c-.09.36.11.73.47.85l1.03.34c.23.08.48.03.67-.12l2.66-2.13c.25-.2.59-.21.85-.03l.72.5c.19.13.31.35.31.59v1.13c0,.39-.32.71-.71.71h-2.77c-.24,0-.47.12-.6.33l-.41.64c-.19.3-.13.7.14.93l.67.56c.16.14.38.2.6.15l1.46-.28c.44-.08.85.25.85.7v.45c0,.39-.32.71-.71.71h-.13c-.44,0-.78.4-.7.83l.14.84c.04.22.18.42.38.52l.63.32c.24.12.39.37.39.64v.61c0,.19-.08.37-.21.51l-.44.44c-.34.34-.25.93.19,1.14l.11.06c.22.11.48.1.69-.03l2.69-1.62c.22-.13.35-.36.35-.61v-1.7c0-.42.36-.75.78-.71l.76.07c.29.03.57-.13.7-.39l.18-.35c.16-.32.06-.71-.24-.91l-.98-.65c-.3-.2-.4-.59-.24-.91l.2-.39c.12-.24.37-.39.64-.39h1.14c.27,0,.52-.15.64-.39l.03-.07c.22-.44.8-.53,1.14-.19l1.12,1.12c.13.13.32.21.51.21.51,0,.85-.51.66-.98l-.88-2.19c-.05-.13-.15-.25-.27-.33l-1.84-1.23v-.68l.99-.99c.22-.22.55-.27.82-.13l.3.15c.33.17.74.05.93-.27l1.29-2.15c.21-.36.08-.82-.29-1.01Z"/>
  <path class="cls-1" d="M166.86,175.42c0,.44-.25.83-.63,1.03l-.59.3.54,3.22s0,.04,0,.06c0,.05.01.1,0,.16,0,.03,0,.07-.01.1,0,.03,0,.06,0,.09l-1.28,6.36,1.06,2.08,1.73-1.44c.29-.24.67-.32,1.03-.23.36.09.65.36.78.71l1.75,4.66h1.11l1.74-4.64c-.05-1.32.19-2.33.4-3.21.21-.87.38-1.56.23-2.42-.37-2.08.42-3.08.89-3.68.04-.05.08-.11.12-.16-.07-.13-.26-.38-.7-.82-.94-.94-1.84-1.84-2.12-1.9-.15.02-.68.38-1.16.7-.3.2-.67.25-1.01.13-.34-.12-.6-.38-.72-.72-.25-.75-.94-1.58-1.61-2.38-.29-.34-.57-.68-.82-1.02l-.73.37v2.67Z"/>
  <path class="cls-1" d="M157.11,153.1c-.58-.77-1.22-1.63-1.9-2.18-1.37.08-1.92.6-2.39,1.14.28.88.55,1.85.82,2.79.33,1.15.67,2.34,1,3.33.14.41.03.87-.28,1.18-.2.2-.5.39-1.1.78-.28.18-.75.48-1.09.72.48,1.23,1.11,2.36,1.78,3.17,1.13-.23,2.03-.23,2.68.29.77.6.77,1.52.77,2.33,0,1.72-.93,2.25-1.78,2.7l.23,1.01,3.94.56c.62.09,1.05.66.98,1.28l-.61,4.85,1.97,1.97h1.55l-.46-2.71c-.08-.5.17-.99.62-1.22l.72-.36v-2.67c0-.44.25-.83.63-1.03l1.42-.71c-.01-.1-.03-.19-.03-.29,0-2.36-.68-2.76-2.02-3.55-1.27-.75-3.01-1.77-4.18-4.73-.52-1.31-.36-2.8.42-3.97.25-.38.48-.66.67-.88.11-.13.26-.31.28-.37,0-.05,0-.27-.26-1.01-.38.06-.75.12-1.19.12-1.3,0-2.18-1.18-3.19-2.54Z"/>
  <path class="cls-1" d="M180.78,199.86c-.4-3.96-2.23-5.19-3.85-6.26-.75-.5-1.47-.98-1.9-1.69l-.81,2.17c-.17.45-.6.75-1.08.75h-2.7c-.48,0-.91-.3-1.08-.75l-1.46-3.89-1.59,1.33c-.27.22-.62.31-.97.24-.34-.07-.63-.29-.79-.6l-1.9-3.72c-.12-.23-.15-.49-.1-.75l1.08-5.38h-1.98c-.3,0-.6-.12-.81-.34l-2.7-2.7c-.25-.25-.37-.6-.33-.95l.54-4.28-3.61-.52c-.47-.07-.85-.42-.96-.88l-.59-2.62c-.11-.48.11-.98.53-1.24.28-.17.54-.3.77-.42.22-.12.52-.27.58-.34,0,0,.04-.08.04-.35,0-.15,0-.32,0-.47-.21.01-.6.06-1.27.23-.39.1-.81-.02-1.09-.3-1.19-1.19-2.28-3.08-2.98-5.18-.07-.2-.08-.41-.03-.62.16-.69.79-1.15,2.29-2.11.06-.04.11-.07.18-.11-.26-.83-.51-1.73-.77-2.61-.33-1.15-.67-2.34-1-3.33-.14-.41-.03-.87.28-1.18.09-.09.17-.19.26-.29.67-.77,1.79-2.07,4.6-2.07.23,0,.45.07.64.19,1.11.74,1.97,1.9,2.74,2.92.44.59,1.09,1.46,1.41,1.61.27,0,.51-.04.85-.1.26-.04.56-.09.9-.13.2-.19.4-.37.58-.53,1.19-1.08,1.73-1.58,2.3-3.92.25-1.03.02-2.12-.61-2.99-1.27-1.73-2.73-4.06-4.04-6.52h-4.04c-.22,0-.42-.1-.55-.27l-1.67-2.16c-.13-.17-.33-.27-.55-.27h-1.6c-.14,0-.27.04-.39.12l-3.61,2.4c-.18.12-.39.18-.6.18-.09,0-.17-.01-.26-.03l-8.48-2.06h-.19l-2.69,1.89c-.13.09-.23.23-.27.38l-1.18,4.14c-.06.22-.23.4-.45.47l-1.68.56v-.71c0-.22.11-.44.29-.57l.72-.51c.21-.15.32-.4.29-.65l-.61-4.87c0-.08-.03-.15-.07-.22l-2.5-4.99c-.1-.19-.28-.33-.49-.37l-2.65-.53c-.24-.05-.44-.22-.52-.46l-.58-1.68c-.09-.25-.31-.43-.57-.46l-.94-.11c-.29-.04-.57.12-.71.38l-.38.77c-.05.1-.07.2-.07.31v2.37c0,.35-.27.65-.62.69l-.64.07c-.41.05-.77-.28-.77-.69v-.29c0-.28-.16-.53-.42-.64l-1.95-.86c-.21-.09-.36-.28-.4-.5l-.54-2.71c-.04-.2-.16-.37-.34-.47l-3.62-2.06c-.29-.16-.65-.1-.86.14l-.53.6c-.07.08-.13.18-.15.29l-.56,2.26c-.04.18-.02.37.08.53l1.68,2.8c.12.2.13.46.03.67l-.5.99s-.01.02-.02.04l-1.25,2.93c-.06.14-.07.29-.04.43l.57,2.48c.03.15.02.3-.04.43l-.14.33c-.2.47-.83.56-1.16.18l-.46-.53c-.11-.13-.17-.29-.17-.46v-1.86c0-.07.01-.14.03-.2l.67-2.19c.02-.07.03-.15.03-.22l-.05-1.67c0-.21-.11-.41-.28-.54l-1.18-.87c-.15-.11-.25-.27-.28-.45l-.23-1.47c-.04-.24-.2-.44-.43-.54l-.73-.29c-.17-.07-.35-.07-.52,0l-.87.35c-.14.06-.26.16-.34.29l-.27.45c-.17.28-.51.41-.83.3l-.42-.14c-.24-.08-.51-.03-.7.15l-.53.5c-.28.26-.29.71-.03.99l1.51,1.57s.04.04.07.06l3.06,2.45c.18.14.27.36.26.58l-.07,1.25c-.02.26-.17.49-.41.59l-5.46,2.47c-.08.04-.16.06-.25.06h-.18c-.62.04-.97-.7-.54-1.16.12-.13.19-.3.19-.47v-4.82c0-.2-.09-.39-.23-.52l-.47-.42c-.33-.29-.85-.21-1.07.18l-.16.29c-.06.1-.09.22-.09.34v3.71c0,.11-.03.21-.07.31l-.6,1.2h-.68l-1.61-2.14c-.23-.31-.67-.37-.98-.14l-.98.74c-.16.12-.26.3-.27.49l-.2,2.26c0,.09-.03.17-.07.25l-.51,1.03c-.07.13-.18.24-.31.31l-.91.45c-.15.08-.27.2-.33.36l-.69,1.71s-.04.09-.07.14l-1.72,2.46c-.08.12-.13.26-.13.4v3.01c0,.11-.03.22-.07.31l-.53,1.04c-.05.1-.07.2-.07.31v1.09l1.28-1.18s.09-.1.12-.15l1.77-2.96c.13-.21.35-.34.6-.34h1.2c.26,0,.5.15.62.38l.41.82c.05.1.07.2.07.31v1.43c0,.26-.15.5-.38.62l-.76.38c-.13.07-.24.18-.31.31l-.35.7c-.13.27-.08.59.13.8l.12.12c.13.13.31.2.49.2h1.48c.24,0,.47-.13.6-.34l.91-1.52c.07-.11.17-.2.28-.26l.62-.31c.31-.16.69-.06.89.24l.79,1.18c.14.21.15.47.04.7l-.27.54c-.13.27-.08.59.13.8l.92.92c.05.05.11.1.18.13l.94.47c.2.1.43.1.62,0l.34-.17c.37-.19.5-.66.27-1.01l-.77-1.15c-.09-.14-.13-.31-.11-.48l.26-1.79c.03-.2.14-.37.3-.48l1.43-.95c.21-.14.47-.15.7-.04l.7.35c.18.09.31.26.36.45l.52,2.09c.05.19.01.39-.1.55l-.92,1.39c-.16.23-.16.54,0,.77l.62.94c.24.36.76.42,1.07.11l1.37-1.37s.08-.09.1-.13l1.88-3.13c.07-.11.17-.2.29-.26l.55-.27c.34-.17.76-.03.93.31l.91,1.82c.08.16.1.36.04.53l-.36,1.09c-.12.36.08.76.44.88l.89.3c.28.09.48.36.48.66v2.18c0,.38-.31.7-.7.7h-1.13c-.14,0-.27.04-.39.12l-1.54,1.03c-.19.13-.31.35-.31.58v1.37c0,.18.07.36.2.49l2.14,2.14c.21.21.26.53.13.8l-.95,1.89c-.11.22-.09.49.04.7l1.08,1.61c.03.05.06.11.08.17l.56,1.67c.06.17.04.37-.04.53l-.55,1.09-.45.91c-.13.27-.08.58.12.8l3.17,3.24c.13.13.2.3.2.49v.12c0,.38-.31.7-.7.7h-.26c-.38,0-.69.3-.69.68l-.03,1.37c0,.29.17.56.45.66l.94.36c.19.07.33.22.4.41l.75,2.02c.09.25.03.54-.16.73l-.85.85c-.12.12-.19.28-.2.45l-.07,1.2c0,.15.03.29.11.42l1.48,2.3c.12.18.14.41.07.61l-.05.15c-.1.28-.36.46-.65.46h-1.05c-.14,0-.28.04-.39.12l-2.5,1.7c-.19.13-.3.34-.3.57v.53c0,.52.54.85,1.01.62l1.25-.62c.27-.13.59-.08.8.13l1.52,1.52c.1.1.22.16.36.19l2.68.54c.29.06.52.3.55.6l.24,1.94c.02.19.13.37.28.48l2.35,1.69c.14.1.31.14.48.13l3.91-.4s.05,0,.07,0h4.5c.34,0,.63-.25.69-.58l.54-3.36c.02-.14.09-.28.19-.38l1.44-1.44c.18-.18.41-.29.66-.31l13.51-1.35c.32-.04.64.08.87.31l1.46,1.46c.13.13.2.31.2.49v2.82c0,.19.08.37.21.5l.13.13c.17.16.4.23.63.18l7.66-1.64c.21-.05.39-.19.48-.38l1.53-3.26c.12-.26.34-.46.62-.56.27-.1.57-.08.83.04l3.01,1.44c.2.1.35.29.39.51l.58,3.49c.03.19.14.36.3.46l3.64,2.43c.24.16.36.46.29.75l-.3,1.2c-.09.38.14.76.52.85l3.82.85c.12.03.25.02.37-.02l3.19-1.06c.1-.03.2-.09.27-.17l2.16-2.16c-.65-1.83-1.17-3.69-1.33-5.24Z"/>
  <path class="cls-1" d="M306,206.11l-1.26-3.77c-.02-.07-.03-.14-.03-.21v-1.14l-.03-.21-.37-1.11c-.14-.41-.63-.58-.98-.34l-1.09.72c-.14.1-.24.25-.28.42l-.59,2.95c-.02.1-.07.2-.13.28l-2.41,3.01c-.12.16-.31.25-.51.25h-1.31c-.25,0-.47-.14-.59-.36l-1.08-2.16c-.06-.12-.08-.25-.06-.39l.61-4.3c.02-.15,0-.3-.09-.43l-3.75-6.25c-.12-.19-.12-.43-.02-.63l1.11-2.22c.05-.11.08-.22.07-.34l-.65-8.41c0-.13.02-.25.08-.36l3.89-7.14c.04-.08.07-.17.08-.26l.65-7.78c0-.12-.01-.24-.07-.35l-1.2-2.4c-.05-.09-.07-.19-.07-.29v-2.6c0-.26-.16-.5-.4-.6l-.87-.36c-.2-.08-.42-.06-.6.05l-2.1,1.32c-.17.11-.39.13-.58.06l-5.01-1.89c-.3-.11-.47-.43-.41-.74l.69-3.49c.03-.14,0-.29-.06-.42l-1.16-2.32c-.07-.15-.09-.32-.04-.47l1.33-4.65.03-.18v-2.88c0-.22-.11-.42-.29-.54l-.42-.28c-.2-.13-.45-.15-.66-.04l-1.98.99c-.17.09-.37.09-.55.02l-3.53-1.5c-.17-.07-.31-.22-.37-.4l-.72-2.2c-.05-.17-.17-.3-.33-.38l-2.22-1.11c-.16-.08-.29-.23-.34-.41l-1.46-5.11c-.06-.2-.02-.41.11-.57l2.28-3.04c.12-.16.32-.26.52-.26h3.32l.2-.44-2.48-1.24c-.16-.08-.34-.09-.5-.04l-3.47,1.16c-.1.03-.21.04-.32.02l-7.68-1.32h-.23s-3.29.62-3.29.62c-.32.06-.64-.03-.89-.23-.25-.21-.39-.51-.39-.83v-.75c0-.28-.17-.52-.43-.62l-1.04-.38c-.16-.06-.29-.17-.36-.32l-.8-1.61c-.14-.27-.45-.42-.74-.34l-3.04.76c-.23.06-.42.24-.48.48l-.22.89c-.05.19,0,.39.11.55l1.75,2.34c.2.26.17.63-.06.86l-1.78,1.78c-.16.16-.4.23-.62.17l-5.05-1.26c-.14-.04-.3-.02-.43.04l-3.02,1.37-.1.06-7.65,5.28c-.08.06-.15.13-.2.21l-2.27,3.97c-.19.33-.06.74.27.91l1.98,1.01c.22.11.36.34.36.58v3.49c0,.21-.1.4-.26.52l-3.01,2.25c-.13.1-.3.14-.46.13l-5.95-.62c-.33-.03-.59-.32-.59-.65v-2.02c0-.27-.16-.51-.41-.61l-2.42-.97c-.13-.05-.24-.15-.32-.27l-1.22-1.99c-.12-.19-.33-.31-.56-.31h-.75c-.3,0-.56.2-.64.5l-1.02,4.09c-.09.34-.33.62-.66.75-.33.13-.7.09-.99-.11l-2.77-1.84c-.28-.18-.65-.13-.86.12l-1.49,1.75c-.2.24-.54.3-.81.15l-.87-.47c-.37-.2-.82,0-.94.4l-.41,1.44c-.08.27.03.57.26.72l3.06,2.05c.26.18.36.51.24.8l-2.08,4.88c-.13.31-.49.47-.81.36l-5.04-1.68c-.31-.1-.64.04-.79.32l-.82,1.61c-.11.22-.34.36-.58.36h-3.51c-.19,0-.36.08-.49.22l-.08.09c-.2.23-.22.56-.05.81l1.33,1.91c.21.3.25.68.12,1.01-.13.34-.43.58-.78.66l-3.27.7c-.3.06-.52.33-.52.64v.03c0,.25.15.48.38.59l4.62,2.18c.2.1.34.29.37.51l.35,2.91c.03.29-.12.56-.39.68l-1.69.74c-.21.09-.36.29-.39.53l-.68,5.89c-.01.12,0,.23.05.34l1.49,3.4c.14.32,0,.69-.31.85l-2.42,1.21c-.16.08-.27.21-.33.38l-.65,1.95c-.1.31.04.64.33.79l.63.32c.14.07.3.09.45.05l2.11-.51c.19-.04.38,0,.54.11l2.45,1.76c.3.22.72.14.93-.17l.92-1.39c.12-.18.33-.29.55-.29h3.27c.14,0,.28.05.39.13l2.93,2.2c.12.09.2.21.24.35l1.15,4.19c.09.33.02.67-.18.94s-.52.43-.86.43h-3.56c-.22,0-.42.11-.54.29l-.25.37,1.8,1.26c.23.16.33.45.25.72l-1.2,4.19c-.05.18-.18.33-.35.41l-1.75.82c-.16.07-.28.21-.34.37l-1.66,4.57c-.07.2-.24.35-.44.41l-1.89.52c-.4.11-.6.56-.41.92l1.17,2.34c.09.18.09.38.01.56l-.75,1.64c.68,3.01,1.64,5.8,3.24,6.33,1.83.61,3.35.78,4.82.94,1.64.18,3.2.35,4.78,1.15,2.5,1.25,7.39,4.93,7.39,7.78,0,1.02-.37,1.95-.69,2.78-.44,1.13-.56,1.57-.32,1.81.43.43.69.8.88,1.08.05.07.1.15.15.2.14,0,.47-.03,1.26-.23.46-.12.87-.24,1.24-.35,1.89-.56,3.15-.83,5.39.32l-1.67-4.18c-.14-.35-.1-.76.12-1.07s.57-.5.95-.5h1.13l.37-1.5-1.24-3.53c-.11-.31-.08-.66.08-.94l1.83-3.26-1.39-.78c-.49-.28-.71-.87-.51-1.4l2.03-5.4c.12-.32.38-.57.7-.68.32-.11.68-.08.97.1l2.78,1.67c1.75-1.08,2.87-1.89,3.46-2.35l-.87-3.46c-.08-.3-.02-.63.14-.89l1.7-2.7c.21-.33.58-.54.97-.54h8.98c.22,0,.43.06.62.18l2.9,1.85c.22.14.38.35.47.59l2.83,8.28c.11.33.07.7-.12,1l-1.04,1.61c-.11.17-.27.31-.45.4l-2.9,1.45v3.34c0,.13-.02.27-.07.39l-2.28,6.29c-.1.28-.31.52-.59.65l-3.2,1.52c-.42.2-.92.13-1.27-.19l-1.69-1.55c-.3-.28-.72-.38-1.11-.28l-.59.15c-.35.09-.58.43-.54.79l.25,1.93c.05.4.3.73.63.96.19.13.39.33.54.63.8,1.59.8,3.79.8,5.24,0,.15.22.67.86,1.21.65.54,1.39.81,1.95.71.33-.06.58-.29.96-.66.99-.98,2.24-1.88,4.56-.15,2.17,1.63,4.06,1.8,4.8,1.13,1.24-1.12,2.64-.93,3.66-.78.17.03.34.05.51.07.04-.21.09-.47.12-.68.18-1.16.41-2.59,1.58-3.26.71-.4,1.58-.41,2.58,0,1.56.63,2.38,1.38,2.91,1.88.04.04.09.09.14.13.1-.08.24-.21.44-.41.5-.5.82-.91,1.08-1.24,1.03-1.32,1.69-1.65,3.87-1.13-.04-.13-.09-.26-.12-.36-.22-.61-.44-1.25-.44-1.86,0-2.19,3.45-4.53,5.88-4.53,4.16,0,7.9.19,7.9,2.5,0,.56-.09,1.06-.17,1.5-.11.58-.19,1.04-.07,1.53.49-.15,1.31-.55,1.9-.84,1.75-.85,3.55-1.74,4.99-1.26.63.21,1.92.62,3.4,1.08l-.05-.13c-.09-.24-.03-.52.16-.7l1.58-1.52c.09-.08.15-.19.18-.31l6.66-25.38c.03-.12.03-.25-.01-.37Z"/>
  <path class="cls-1" d="M240.48,228.53l3.22-.84c.43-.11.88,0,1.2.3l1.34,1.22c.4.37.98.46,1.48.22l.76-.36c.32-.15.56-.42.68-.75l1.79-4.93c.05-.14.08-.3.08-.45v-3.53c0-.49.28-.94.72-1.16l2.88-1.44c.19-.1.35-.24.47-.42l.07-.11c.2-.31.25-.7.13-1.05l-2.22-6.49c-.07-.21-.21-.39-.4-.51l-1.74-1.12c-.16-.1-.34-.15-.53-.15h-7.19c-.34,0-.65.17-.83.46l-.59.94c-.14.23-.19.5-.12.76l.83,3.3c.1.41-.03.85-.35,1.14-.06.05-1.47,1.3-4.84,3.33-.41.25-.93.25-1.34,0l-1.54-.92c-.3-.18-.7-.04-.82.29l-.71,1.89c-.14.38.01.81.37,1.01l.92.51c.27.15.46.4.54.69s.04.61-.1.87l-2.11,3.75s-.02.08-.01.12l1.14,3.26c.08.24.1.5.03.74l-.64,2.55c-.14.58-.66.98-1.26.98h0c-.1,0-.17.1-.14.2l1.31,3.28c.19.48.71.77,1.22.66.38-.08.77-.19,1.15-.29,1.01-.28,2.05-.56,2.95-.28.4.12.84-.03,1.12-.34.17-.19.33-.37.46-.52.1-.12.2-.24.3-.35l-.65-5.05c-.08-.65.33-1.25.96-1.42Z"/>
  <path class="cls-1" d="M299.22,239.15l-.72-1.91c-2.14-.66-4.26-1.33-5.15-1.63-.54-.18-2.31.68-3.25,1.14-1.6.78-2.86,1.4-3.89,1.03-.43-.16-.77-.47-.96-.89-.6-1.31-.4-2.41-.24-3.3.05-.28.1-.55.12-.81-.47-.22-1.81-.49-5.59-.49-1.61,0-3.52,1.68-3.58,2.24,0,.21.18.72.31,1.09.35,1,.75,2.14-.02,2.98-.75.83-1.99.52-2.4.42-.97-.24-1.23-.23-1.3-.21-.05.04-.24.28-.39.48-.28.36-.67.86-1.27,1.46-.66.66-1.21,1.03-1.74,1.14l-.22,1.44,1.98,2.47,4.08-.58c.39-.06.79.09,1.04.4l6.75,8.02c.17.21.27.47.27.74v1.89l4.53,1.13c.29.07.54.25.7.51l.76,1.22,2.62-2.62c.14-.14.21-.34.19-.54l-.61-5.45c-.02-.2.05-.39.19-.54l2.29-2.29c.12-.12.29-.19.46-.19h.81c.17,0,.34-.07.46-.19l1.06-1.06c.06-.06.11-.14.15-.22l2.56-6.39c.06-.15.06-.32,0-.47Z"/>
  <path class="cls-1" d="M260.99,273.09l3.8-2.53,1.21-2.43c.16-.32.45-.54.8-.61l2.45-.49v-2.16c0-.44.25-.84.65-1.03l4.73-2.3c.16-.08.33-.12.5-.12h.41v-1.12c0-.22.06-.44.18-.62l1.15-1.78c.27-.41.77-.61,1.24-.49l2.13.53.55-.47c-.03-.1-.05-.19-.05-.3v-2.37l-6.07-7.21-4.1.59c-.4.06-.81-.1-1.06-.42l-2.7-3.38c-.2-.25-.29-.57-.24-.89l.39-2.54c-.44-.4-1-.87-2.05-1.29-.44-.17-.59-.13-.59-.13-.21.16-.38,1.18-.45,1.62-.17,1.05-.42,2.65-1.91,2.65-.46,0-.91-.06-1.3-.12-.98-.14-1.39-.16-1.79.21-.72.65-1.65.97-2.7.97-1.52,0-3.29-.67-5.02-1.97-.92-.69-.96-.66-1.57-.06-.47.46-1.11,1.1-2.16,1.29-1.24.22-2.64-.22-3.83-1.21-1.05-.88-1.68-1.99-1.68-2.97,0-.9,0-2.15-.22-3.18-.03.04-.06.07-.09.1-.85.98-2.42,2.8-4,1.54-.21-.08-1.08.15-1.65.31-1.6.44-3.78,1.03-5.88-.22-1.99-1.19-2.62-1.01-4.31-.51-.4.12-.84.25-1.33.37-2.19.55-2.98.36-3.85-.89-.16-.23-.33-.48-.62-.76-1.35-1.35-.68-3.04-.19-4.28.26-.67.53-1.35.53-1.94,0-1.22-3.32-4.33-6.12-5.73-1.22-.61-2.45-.75-4.01-.92-1.52-.17-3.23-.36-5.3-1.05-1.97-.66-3.17-2.69-4-5.22l-1.29,2.85c-.07.16-.2.28-.37.34l-5.22,1.96c-.09.03-.17.08-.23.15l-.58.58c-.12.12-.19.29-.19.46v2.23c0,.24-.13.45-.33.57l-4.07,2.32c-.2.12-.33.33-.33.57v4.49c0,.09-.02.19-.06.27l-3.18,7c-.06.13-.07.26-.05.4l.37,1.84c.05.23.21.42.43.49l1.29.43c.21.07.37.25.43.46l.76,3.03c.03.1.03.21,0,.32l-.46,1.85c-.06.22,0,.46.17.62l1.5,1.5c.16.16.23.4.17.62l-.76,3.05c-.03.12-.09.22-.17.3l-2.45,2.45c-.08.08-.14.19-.17.3l-.59,2.35c-.03.12-.09.22-.17.3l-1.6,1.6c-.12.12-.19.29-.19.46v.44c0,.21.1.4.26.52l2.15,1.61c.14.11.23.26.26.44l.76,5.75c.03.19.14.37.31.47l3.34,2.06c.16.1.27.26.3.45l.63,3.76c.02.12.07.23.15.32l4.58,5.23c.17.19.21.46.11.69l-.66,2.43.23.09.21-.21c.26-.26.67-.26.93,0l1.13,1.13c.24.24.26.63.03.89l-3.44,4.01c-.14.16-.19.38-.14.59l.58,2.3s.03.09.05.13l2.55,5.1c.08.16.09.34.04.5l-.46,1.39c-.08.24-.02.49.16.67l1.55,1.55c.12.12.29.19.46.19h1.28c.28,0,.53-.18.62-.45l.47-1.41c.04-.11.04-.22.02-.34l-.54-2.72c-.06-.29.09-.58.35-.71l.23-.11c.36-.18.79,0,.91.38l.4,1.21c.02.07.03.14.03.21v2.04c0,.27.17.51.42.61l1.49.58c.08.03.16.04.24.04h4.17c.26,0,.5-.16.6-.4l1.72-4.01c.09-.2.07-.44-.06-.62l-1.08-1.62c-.05-.07-.11-.13-.18-.18l-1.92-1.28.39-.39c.18-.18.43-.24.67-.16l1.54.51c.07.02.14.03.21.03h.59c.36,0,.66-.29.66-.66v-.42c0-.23-.12-.44-.31-.56l-1.65-1.03s-.08-.06-.12-.09l-.16-.16c-.26-.26-.26-.67,0-.93l.55-.55c.2-.2.25-.5.12-.76l-.37-.73c-.06-.13-.17-.23-.29-.29l-1.16-.58h-.68l-1.35-2.03-.6.6s-.09.11-.12.17l-.61,1.22s-.03.05-.04.07l-1.31,1.96s-.03.05-.04.07l-.48.95c-.11.22-.09.49.06.69l1.78,2.38v.68h-1.8c-.15,0-.29-.05-.41-.14l-2.95-2.36c-.16-.12-.25-.31-.25-.51v-1.73c0-.36.29-.66.66-.66h.72c.36,0,.66-.29.66-.66v-1.7c0-.22-.11-.42-.29-.55l-1.44-.96c-.18-.12-.29-.33-.29-.55v-.73c0-.17.07-.34.19-.46l1.5-1.5c.2-.2.5-.25.76-.12l1.94.97c.21.11.46.09.66-.04l1.42-.95c.18-.12.29-.33.29-.55v-.73c0-.17.07-.34.19-.46l.7-.7c.26-.26.67-.26.93,0l.7.7c.12.12.19.29.19.46v4.75c0,.24.13.46.34.57l5.59,3.11c.1.05.21.08.32.08h3.23c.36,0,.66-.29.66-.66v-2.05c0-.26.15-.49.38-.6l1.41-.64c.15-.07.32-.08.48-.03l1.07.36c.38.13.56.56.38.91l-.09.17c-.14.29-.06.64.21.83l3.95,2.82c.2.14.46.16.67.05l.48-.24c.3-.15.65-.05.84.22l.55.83c.24.36.07.85-.34.98l-.5.17c-.38.13-.56.56-.38.91.18.36,0,.79-.38.91l-.5.17c-.41.14-.58.63-.34.98l2.1,3.15c.08.12.2.21.34.26l1.27.42c.31.1.65-.04.79-.33l1.06-2.13s.04-.09.05-.13l.6-2.4c.04-.15.02-.31-.05-.45l-.2-.4c-.19-.37.02-.83.43-.93l1.51-.38c.25-.06.43-.26.48-.51l.49-2.44c.06-.31-.11-.62-.4-.74l-2.52-1.01c-.22-.09-.37-.28-.41-.52l-.58-4.03c-.03-.2.04-.41.19-.56l.83-.83c.18-.18.44-.24.67-.16l1.82.61c.29.1.61-.02.77-.28l.9-1.5c.11-.19.12-.43.02-.63l-1.12-2.24c-.05-.09-.07-.19-.07-.29v-2.69c0-.31.22-.58.53-.64l2.79-.56s.09-.01.13-.01h.63c.36,0,.66.29.66.66v1.17c0,.13.04.26.11.36l.98,1.48c.15.23.44.34.7.27l1.76-.44c.29-.07.5-.33.5-.64v-1.16c0-.1-.02-.19-.06-.28l-1.16-2.49c-.08-.18-.08-.39,0-.57l.29-.58c.14-.28.46-.42.77-.34l3.93,1.12c.18.05.32.17.41.34l.45.9c.06.13.17.23.29.29l2.17,1.08c.21.11.46.09.66-.04l1-.66c.36-.24.85-.07.98.34l.2.59c.11.34.49.53.83.41l1.09-.36c.2-.07.35-.22.41-.41l.42-1.27c.09-.27.34-.45.62-.45h.22c.1,0,.19.02.27.06l.86-1.72c.09-.18.22-.33.39-.44Z"/>
  <path class="cls-1" d="M286.57,259.51l-3.59-.9-1.69,1.44c-.28.24-.67.33-1.03.24l-1.9-.48-.52.8v1.94c0,.63-.51,1.15-1.15,1.15h-1.29l-3.84,1.87v2.38c0,.55-.39,1.02-.92,1.13l-2.83.57-1.1,2.2c-.09.18-.22.33-.39.44l-3.8,2.53-1.4,2.79.18.13c.11.09.25.13.4.13h.66c.28,0,.53-.18.62-.45l.44-1.32c.05-.16.17-.3.33-.38l1.87-.94c.32-.16.72-.03.88.29l.17.34c.13.25.08.56-.12.76l-.7.7c-.19.19-.24.47-.14.72l1.1,2.57c.05.12.13.22.24.29l.52.34c.35.23.82.08.97-.3l1.02-2.55c.02-.05.05-.1.08-.15l1.52-2.03c.24-.32.71-.35.99-.07l.53.53c.18.18.43.24.67.16l1.19-.4c.27-.09.45-.34.45-.62v-1.25c0-.17.07-.33.18-.46l1.01-1.04c.1-.11.24-.18.39-.19l4.8-.6c.23-.03.43-.18.52-.39l1.87-4.36s.01-.03.02-.05l1.93-5.8c.05-.16.17-.3.33-.38l1.06-.53-.53-.84Z"/>
  <path class="cls-1" d="M152.65,86.94c-.31.06-.63,0-.89-.19-.26-.18-.43-.46-.47-.78l-.22-1.58c-.07-.53.23-1.04.73-1.23l1.59-.61.21-.67-1.65-1.52c-.29-.27-.42-.66-.35-1.05l.67-3.77-4.55-.24-2.04,3.73c-.2.37-.59.6-1.01.6h-3.36l-.53.96,1.93,2.03c.24.25.35.6.31.95-.05.35-.25.65-.55.83l-2.51,1.48c-.39.23-.88.21-1.25-.06l-1.86-1.34-1.89-.39-.97.79,3.39,2.63c.28.22.44.55.44.91v2.95l1.17-.41c.53-.19,1.11.04,1.38.53l1.69,3.05h1.76l3.81-1.91c.25-.12.53-.15.79-.09l2.34.59,2.31-.92v-2.6c0-.49.32-.93.79-1.09l2.9-.97-.54-1.36-3.57.71Z"/>
  <path class="cls-1" d="M195.21,89.78l-.33-.43c-.12-.16-.3-.26-.5-.29l-4.7-.59c-.09-.01-.18-.04-.26-.08l-7.08-3.86c-.11-.06-.23-.09-.36-.09h-2.31c-.12,0-.23-.03-.33-.08l-3.04-1.52c-.33-.17-.49-.55-.37-.9l.79-2.36c.03-.08.06-.15.11-.21l.76-1.02h-1.42c-.37,0-.69-.28-.74-.65l-.35-2.79c-.02-.18.02-.37.13-.52l2.2-3.11c.07-.1.12-.22.13-.34l.48-4.08c.02-.21.14-.4.31-.52l4.09-2.92c.2-.14.31-.36.31-.6v-2.73c0-.27-.14-.51-.37-.64l-3.92-2.24c-.16-.09-.28-.24-.34-.41l-.3-.9c-.1-.3-.38-.51-.7-.51h-3.3c-.31,0-.6-.13-.8-.36-.2-.23-.3-.53-.27-.84l.5-4.8c.02-.16-.02-.32-.1-.46l-1.18-1.97c-.13-.22-.38-.36-.64-.36h-2.27c-.2,0-.39.08-.53.22l-1.73,1.73c-.29.29-.76.29-1.05,0l-3.06-3.06c-.17-.17-.25-.41-.21-.65l.55-3.3c.04-.24-.04-.48-.21-.65l-.38-.38-1.45,2.42c-.18.3-.54.43-.87.32l-2.39-.8c-.16-.05-.29-.16-.38-.29l-.66-.98.58,2.32c.08.34-.08.69-.39.84l-1.76.88c-.23.12-.51.1-.73-.03l-5.65-3.53c-.12-.07-.21-.18-.27-.3l-1.81-3.61c-.07-.14-.18-.25-.32-.33l-1.34-.7c-.37-.19-.82-.05-1.01.32l-1.17,2.33c-.13.25-.38.41-.66.41h-.95c-.17,0-.33.06-.46.16l-3,2.4c-.11.09-.2.21-.24.35l-1.93,5.79c-.02.06-.04.11-.07.16l-3.15,5.05c-.11.18-.3.3-.51.34l-3.54.59c-.12.02-.23.07-.32.14l-2.21,1.65c-.22.16-.33.43-.29.7l.58,4.07c.02.14,0,.29-.06.42l-1.5,3.2c-.05.1-.07.21-.07.32v2.3c0,.41-.33.74-.74.74h-2.14c-.12,0-.23.03-.33.08l-4.77,2.39c-.28.14-.45.45-.4.76l.91,6.99c.02.16.1.31.21.43l1.63,1.63c.14.14.22.33.22.53v1.18c0,.32.2.6.51.7l3.25,1.08c.19.06.34.2.43.37l.33.67c.13.25.38.41.66.41h2.15c.06,0,.12,0,.18.02l3.64.9c.24.06.43.23.52.47l.44,1.19c.03.08.05.17.05.26v3.61c0,.2.08.39.22.53l.92.92c.14.14.22.33.22.53v.92c0,.08-.01.16-.04.23l-1.22,3.65c-.06.19-.2.34-.37.43l-.92.46c-.1.05-.22.08-.33.08h-.95c-.15,0-.29.04-.41.12l-1.4.94c-.26.17-.38.49-.31.8l.37,1.47c.1.4.5.64.9.54l1.57-.39c.25-.06.52.01.71.2l3.54,3.54c.14.14.22.33.22.53v.43c0,.35-.25.66-.6.73l-2.64.53c-.1.02-.19.06-.27.11l-1.2.8c-.37.25-.88.11-1.08-.29l-.05-.09c-.15-.3-.48-.46-.81-.4l-2.6.52c-.14.03-.28.1-.38.2l-.97.97c-.14.14-.22.33-.22.53v5.31c0,.28.16.54.41.66l.53.26c.25.13.41.38.41.66v.82c0,.41.33.74.74.74h.93c.23,0,.44-.1.58-.28l2.26-2.82c.14-.18.35-.28.58-.28h.57c.53,0,.88.53.69,1.02l-.86,2.15c-.05.13-.07.28-.04.42l.58,2.89c.03.17,0,.35-.08.51l-1.24,2.23c-.18.32-.09.73.2.95l1.89,1.42c.19.14.3.36.3.59v.62c0,.23.1.44.28.58l5.83,4.66c.08.07.18.12.29.14l3.58.87s.04,0,.06.01l2.24.34-.19.16,3.27.79c.2.05.41.01.59-.1l3.47-2.32c.12-.08.27-.12.41-.12h3.28c.23,0,.45.11.59.29l1.64,2.13c.14.18.36.29.59.29h4.75s.1,0,.14-.01l5.22-1.03c.35-.07.6-.37.6-.73v-2.39c0-.3.18-.57.45-.68l2.19-.94c.13-.06.25-.15.33-.27l1.07-1.6s.06-.08.09-.11l1.47-1.47c.14-.14.33-.22.53-.22h1c.31,0,.59-.19.7-.48l2.85-7.62s.03-.07.05-.1l.97-1.74s0,0,0,0l11.79-21.08c.06-.11.09-.24.09-.36v-2.28c0-.15.04-.29.13-.42l1.01-1.49c.08-.12.19-.21.32-.26l1.81-.78c.44-.19.59-.75.3-1.13ZM159.32,88.77c-.13.29-.38.51-.68.61l-3.27,1.09v2.55c0,.47-.29.89-.72,1.07l-3.38,1.35c-.22.09-.47.11-.7.05l-2.29-.57-3.67,1.84c-.16.08-.34.12-.51.12h-2.71c-.42,0-.8-.23-1.01-.59l-1.55-2.8-1.79.63c-.35.12-.74.07-1.04-.15-.3-.22-.48-.56-.48-.94v-4.01l-4.09-3.17c-.28-.21-.44-.54-.44-.89,0-.35.15-.68.42-.9l2.51-2.04c.27-.22.62-.3.96-.24l2.67.55c.16.03.31.1.44.19l1.45,1.04.62-.37-1.52-1.59c-.34-.36-.42-.91-.17-1.34l1.26-2.29c.2-.37.59-.6,1.01-.6h3.36l2.06-3.76c.21-.39.63-.62,1.07-.6l6.56.34c.33.02.63.17.84.43.21.26.29.59.23.92l-.79,4.43,1.72,1.58c.33.3.45.76.32,1.19l-.59,1.9c-.03.11-.08.21-.14.3l1.44-.29c.54-.11,1.09.19,1.29.7l1.35,3.38c.12.29.11.62-.02.91Z"/>
  <path class="cls-1" d="M144.47,271.98c-.63,0-1.15-.51-1.15-1.15v-1.82l-1.75-2.47-2.25.45-1.92,2.38c-.22.27-.55.43-.89.43h-2.55c-.35,0-.69-.16-.91-.44-.22-.28-.29-.64-.21-.98l.45-1.81-.15-.07-1.58.4-.53,2.66c-.09.44-.42.78-.85.89l-2.27.57-2.05,3.08,1.26,2.1,3.97-.57c.27-.04.54.02.76.16l2.26,1.4c.53.32.7,1.01.4,1.54l-.92,1.62h1.67l1.03-2.07c.16-.32.47-.55.83-.62l3.55-.63c.52-.09,1.04.18,1.25.66l.6,1.35,2.2-1.62,1.71-4.01-.32-1.41h-1.67Z"/>
  <path class="cls-1" d="M193.68,285.14l-4-4.57c-.1-.11-.16-.25-.19-.4l-.55-3.29c-.04-.23-.17-.43-.37-.55l-3.26-2.01c-.21-.13-.34-.34-.37-.58l-.76-5.73c-.03-.21-.14-.41-.31-.54l-2.18-1.63c-.2-.15-.32-.39-.32-.64v-2.28c0-.21.08-.42.24-.57l.54-.54c-2.14-1.29-4.41-2.58-5.31-2.88-.11-.04-.19-.06-.25-.07-.07.1-.15.26-.22.39-.32.6-.81,1.51-1.91,2.24-1.85,1.23-5.23.53-9.79-.59-.94-.23-1.82-.45-2.55-.59-1.41-.28-1.78.33-2.25,1.35-.26.55-.64,1.37-1.57,1.37-.31,0-.87-.07-1.93-.21-1.1-.14-3.15-.41-3.62-.34-.43.06-.84-.06-1.15-.35-.61-.55-.58-1.4-.55-2.37.02-.44.05-1.33-.09-1.62-1.3-.7-.88-2.17-.63-3.05.43-1.49.42-1.88-.57-2.28-.32-.13-.59-.17-.72-.1-.35.17-.64,1.14-.82,1.78-.3,1.04-.72,2.46-2.09,2.46-2.25,0-4.53-1.32-4.53-3.85,0-1.37-.33-3.11-1.92-3.64-1.06-.35-3.29.09-4.77.39-.33.07-.64.13-.92.18.14.21.29.43.42.61,1.1,1.58,2.04,2.94,1.04,3.95-1.01,1.01-2.01,1.01-4.19,1.01-.25.15-.47,1.15-.58,1.64-.25,1.14-.53,2.43-1.61,2.97-1.41.7-9.21,2.92-11.68,2.09-1.45-.48-1.93-1.32-2.08-1.93-.3-1.26.57-2.29.95-2.67.71-.74,2.36-4.19,2.05-5.07-.2.1-.54.32-.8.5-1.07.72-2.7,1.81-5.17,1.81-1.61,0-4.23.35-7.18.8l-.89,2.67c-.11.34.02.72.32.92l1.16.77c.22.15.36.4.36.67v.38c0,.33-.2.62-.5.75l-2.53,1.01c-.22.09-.39.27-.46.49l-.43,1.29c-.08.24-.27.43-.51.51l-1.1.37c-.33.11-.55.42-.55.76v1.05c0,.25.12.49.32.64l2.17,1.62c.14.1.31.16.48.16h.78c.23,0,.45.1.6.27l5.5,6.17c.18.2.24.47.18.73l-.48,1.93c-.06.23-.21.42-.42.52l-3.48,1.74c-.16.08-.28.2-.36.36l-1.14,2.27c-.06.13-.16.23-.27.31l-1.34.89c-.29.19-.39.58-.24.89l.11.23c.16.32.55.47.88.34l2.32-.93c.28-.11.6-.06.83.14l.64.56c.3.26.36.71.14,1.04l-1.7,2.59c-.09.13-.13.28-.13.44v5.6c0,.16-.05.31-.13.45l-1.22,1.82v.68l1.71.57c.2.07.37.21.46.4l.33.67c.12.24.36.38.62.38h.29c.23,0,.44-.11.57-.3l.56-.81c.11-.16.28-.27.46-.32l1.41-.35c.51-.13,1,.26,1,.78v.37c0,.37.25.69.61.78l1.25.31c.45.11.72.59.57,1.03l-.13.4c-.15.44-.63.66-1.06.49l-2.44-.98c-.09-.04-.2-.06-.3-.06h-4.03c-.33,0-.62.2-.74.5l-.11.26c-.14.35-.02.74.28.96l1.17.83c.14.1.3.15.47.15h5.87c.3,0,.57.16.71.42l1.95,3.63.36.72c.18.36.06.8-.27,1.03l-1.05.7c-.24.16-.55.18-.8.05l-2.92-1.46c-.4-.2-.56-.68-.36-1.08l.23-.46c.06-.11.08-.23.08-.36v-.58c0-.35-.22-.65-.55-.76l-1.07-.36c-.25-.08-.53-.02-.71.17l-.07.07c-.19.19-.46.25-.71.17l-1.04-.35c-.34-.11-.72.02-.92.32l-.71,1.07c-.18.27-.18.62,0,.89l.95,1.42c.07.1.16.19.27.25l4.38,2.5c.12.07.22.17.28.29.27.53-.12,1.16-.72,1.16h-1.71c-.1,0-.19-.02-.28-.05l-3.14-1.18c-.2-.08-.37-.23-.46-.44l-1.74-4.07c-.09-.22-.09-.46.02-.68l.35-.7c.1-.21.11-.44.03-.66l-1.16-2.9c-.04-.09-.06-.2-.06-.3v-.77c0-.27-.13-.52-.36-.67l-1.28-.85c-.24-.16-.55-.18-.8-.05l-.49.25c-.27.14-.44.41-.44.72v1.4c0,.09.01.17.04.25l.5,1.5c.08.25.04.53-.12.74l-1.48,1.97c-.18.24-.21.57-.08.84l3.05,6.1c.07.14.17.25.31.33l3.09,1.86c.06.03.11.07.15.12l2.4,2.4c.15.15.35.24.57.24h3.27c.27,0,.52-.13.66-.35l1.02-1.5c.08-.11.18-.21.31-.27l.33-.17c.44-.22.97,0,1.12.46l.15.44c.13.4-.06.83-.45.99l-.8.34c-.08.03-.15.08-.22.13l-2.68,2.32c-.21.18-.31.46-.27.74l.54,3.27c.04.22.16.41.35.54l1.38.92c.22.15.36.4.36.67v.59c0,.21-.08.42-.24.57l-.88.88c-.15.15-.24.35-.24.57v1.69c0,.39.28.73.67.79l1.84.31c.64.11.9.9.44,1.36l-.04.04c-.13.13-.2.31-.2.49v.57c0,.3.17.58.44.72l.53.26c.24.12.52.11.75-.02l1.67-.93c.21-.12.45-.13.68-.05l1.07.41c.17.07.36.07.54.01l1.31-.44c.27-.09.48-.32.53-.6l1.19-5.94c.05-.23.19-.42.39-.54l4.2-2.4c.14-.08.25-.2.32-.34l.57-1.13.61-1.22c.04-.09.07-.18.08-.28l.62-6.23c.02-.24.17-.45.38-.55.46-.23,1.01.11,1.01.62v5.53c0,.07,0,.13.02.19l.55,2.22c.06.24.23.44.46.54l4.02,1.72c.22.09.46.09.68-.02l.78-.39c.16-.08.28-.2.36-.36l.33-.67c.14-.27.41-.44.72-.44h1.34c.12,0,.25-.03.36-.08l.8-.4c.24-.12.38-.36.38-.62v-.22c0-.38.31-.7.7-.7h.83c.3,0,.58-.17.72-.44l.25-.49c.13-.26.11-.56-.05-.8l-.87-1.31c-.14-.21-.17-.46-.09-.7l.37-1.1c.11-.33.42-.55.76-.55h.23c.33,0,.62-.2.74-.5l.75-1.82c.04-.1.06-.2.06-.31v-1.81c0-.34.21-.64.54-.76l2.36-.83c.1-.03.19-.09.26-.16l.33-.33c.15-.15.24-.35.24-.57v-.8c0-.21.09-.4.25-.53l.23-.2c.13-.11.28-.16.45-.16h.91c.12,0,.25-.03.36-.08l.8-.4c.24-.12.38-.36.38-.62v-.24c0-.39.31-.7.7-.7h1.87c.09.01.18,0,.26-.03l1.59-.53c.2-.07.37-.21.46-.4l1.38-2.76c.25-.49.9-.6,1.29-.21l.32.32c.42.42.25,1.14-.31,1.33l-.44.15c-.22.07-.4.24-.49.46l-1.04,2.61c-.1.26-.06.56.1.78l1.5,2c.16.21.2.49.12.74l-.51,1.53c-.02.07-.05.13-.09.19l-.85,1.27c-.25.37-.74.47-1.11.22l-.69-.46c-.37-.25-.47-.74-.22-1.11l.77-1.16c.09-.13.13-.29.13-.45v-1.49c0-.18-.07-.36-.2-.49l-.07-.07c-.23-.23-.6-.27-.88-.09l-1.42.95c-.09.06-.16.13-.22.22l-1.22,1.83s-.06.09-.1.12l-2.46,2.46c-.12.12-.2.28-.23.45l-.57,3.96c-.04.31.09.61.35.78l1.22.81c.24.16.55.18.8.05l3.4-1.7c.15-.08.32-.1.49-.07l3.48.58c.2.03.38.14.51.31l.88,1.15c.17.23.21.53.1.8l-.16.38c-.18.43.04.93.49,1.07l.44.15c.42.14.65.6.51,1.02l-.17.5c-.14.42.09.88.51,1.02l1.01.34c.16.05.34.05.51,0l.54-.18c.57-.19.74-.91.31-1.33l-.43-.43v-.68l.85-.68c.29-.24.71-.24,1.01,0l.29.23c.32.26.78.23,1.07-.06l.61-.61c.15-.15.24-.35.24-.57v-.47c0-.13.03-.27.1-.38l1.64-3.02c.17-.31.11-.7-.14-.95l-.72-.72c-.13-.13-.2-.31-.2-.49v-.26c0-.44.36-.8.8-.8h3.74c.12,0,.25.03.36.08l.46.23c.4.2.88.04,1.08-.36l.26-.52c.04-.07.06-.15.07-.23l.58-3.45c.05-.3-.07-.59-.31-.77l-7.39-5.55c-.2-.15-.32-.39-.32-.64v-1.44c0-.12.03-.25.08-.36l1.79-3.59c.1-.19.11-.41.04-.61l-.35-1.05c-.13-.38.05-.79.4-.97l.56-.28c.11-.06.23-.08.36-.08h2.02c.3,0,.58-.17.72-.44l.33-.67c.08-.16.2-.28.36-.36l.51-.26c.35-.17.77-.07,1,.24l1.11,1.49c.28.37.19.89-.2,1.15l-.73.49c-.34.22-.45.67-.27,1.03l.14.27c.14.27.41.44.72.44h1.2c.21,0,.42.08.57.24l1.56,1.56c.15.15.24.35.24.57v1.2c0,.53-.51.92-1.02.77l-.55-.16c-.28-.08-.58,0-.79.21l-.74.74c-.18.18-.26.42-.23.67l.56,4.51c.04.31.25.56.54.66l5.25,1.75c.22.07.46.05.66-.07l.81-.48c.24-.14.39-.41.39-.69v-.78c0-.21-.08-.41-.22-.56l-1.08-1.12c-.14-.15-.22-.35-.22-.56v-1.95c0-.27.13-.52.36-.67l1.47-.98c.13-.09.29-.13.45-.13h1.98c.29,0,.56-.16.71-.42l3.62-6.64c.13-.23.13-.51.01-.74l-.94-1.88c-.14-.27-.41-.44-.72-.44h-3.29c-.17,0-.34.06-.48.16l-2.07,1.55c-.26.19-.6.21-.88.05l-4.06-2.32c-.14-.08-.25-.2-.32-.34l-.42-.84c-.1-.19-.11-.41-.04-.61l.32-.95c.14-.42.6-.65,1.02-.51l1.16.39c.07.02.13.05.19.09l1.73,1.16c.13.09.29.13.45.13h.98c.44,0,.8-.36.8-.8v-.42c0-.44.36-.8.8-.8h.79c.27,0,.52-.13.67-.36l.96-1.44c.1-.15.24-.26.41-.32l1.52-.51c.16-.05.33-.05.48.01l.17.07c.4.16.86-.03,1.04-.43l.47-1.1c.12-.28.07-.61-.13-.85ZM148.71,273.95l-1.97,4.64c-.08.19-.21.35-.38.48l-3.61,2.66c-.28.21-.64.28-.97.19-.34-.09-.61-.33-.76-.64l-.82-1.84-2.09.37-1.09,2.19c-.19.39-.59.63-1.03.63h-4.35c-.41,0-.79-.22-.99-.57-.21-.35-.21-.79,0-1.14l1.34-2.37-.97-.6-4.32.62c-.45.07-.91-.15-1.15-.55l-2.03-3.38c-.23-.38-.22-.86.03-1.23l2.7-4.05c.16-.24.4-.41.68-.48l2-.5.53-2.66c.09-.44.42-.78.85-.89l2.7-.68c.27-.07.55-.04.79.09l1.35.68c.48.24.73.78.6,1.31l-.32,1.28h.53l1.84-2.28c.17-.21.41-.35.67-.41l3.39-.68c.44-.09.9.09,1.16.46l2.39,3.38c.14.19.21.42.21.66v1.04h1.44c.54,0,1,.37,1.12.9l.6,2.67c.05.23.03.48-.06.7Z"/>
</svg>