<svg width="40" height="40" viewBox="0 0 40 40" fill="none" xmlns="http://www.w3.org/2000/svg">
<path d="M5.58317 17.3344L18.9165 5.92698C19.5403 5.39332 20.4597 5.39332 21.0835 5.92698L34.4168 17.3344C34.7869 17.651 35 18.1137 35 18.6008V33.6667C35 34.5871 34.2538 35.3333 33.3333 35.3333H25.4167C24.4962 35.3333 23.75 34.5871 23.75 33.6667V26.167C23.75 25.7067 23.3769 25.3337 22.9167 25.3337H17.0833C16.6231 25.3337 16.25 25.7067 16.25 26.167V33.6667C16.25 34.5871 15.5038 35.3333 14.5833 35.3333H6.66667C5.74619 35.3333 5 34.5871 5 33.6667V18.6008C5 18.1137 5.21307 17.651 5.58317 17.3344Z" fill="white"/>
</svg>
