<svg width="14" height="14" viewBox="0 0 14 14" fill="none" xmlns="http://www.w3.org/2000/svg">
<path d="M13.1357 0.0489502C13.3278 -0.0321863 13.5479 -0.0115093 13.7217 0.103638C13.8955 0.218849 13.9999 0.413674 14 0.622192V11.5109C14 11.7536 13.859 11.9746 13.6387 12.0763L9.59375 13.9425C9.43856 14.0141 9.26025 14.0187 9.10156 13.9552L4.68457 12.1886L1.10352 13.8409C0.588356 14.0786 0.000271341 13.7022 0 13.1349L0.000976562 2.33313C0.00107935 2.08328 0.150774 1.85725 0.380859 1.75989L4.4248 0.0489502C4.56992 -0.0123876 4.73292 -0.0159475 4.88086 0.038208L9.31641 1.66516L13.1357 0.0489502ZM5.28711 11.089L8.70898 12.4572V2.76575L5.28711 1.51184V11.089ZM9.95312 2.74622V12.4054L12.7559 11.1134V1.56165L9.95312 2.74622ZM1.24512 2.74622L1.24414 12.4054L4.04297 11.1134V1.56165L1.24512 2.74622Z" fill="#256EF4"/>
</svg>
