<svg width="14" height="14" viewBox="0 0 14 14" fill="none" xmlns="http://www.w3.org/2000/svg">
<path d="M5.39404 7.75745C5.62829 7.52352 6.00844 7.52351 6.24268 7.75745C6.47652 7.99169 6.47657 8.37186 6.24268 8.60608L2.61865 12.2301H5.5083C5.83947 12.2302 6.10768 12.4986 6.10791 12.8297C6.10791 13.161 5.83961 13.4302 5.5083 13.4303H0.569824V8.49182C0.569873 8.16049 0.839071 7.89221 1.17041 7.89221C1.50126 7.89252 1.76959 8.16002 1.77002 8.49084V11.3815L5.39404 7.75745ZM7.7583 7.75842C7.99252 7.5242 8.3726 7.52342 8.60693 7.75745L12.231 11.3815L12.23 8.49182C12.2301 8.16063 12.4994 7.89236 12.8306 7.89221C13.1618 7.89224 13.4301 8.16055 13.4302 8.49182V13.4303H8.49268C8.16131 13.4303 7.89209 13.1611 7.89209 12.8297C7.89245 12.4989 8.16084 12.2304 8.4917 12.2301H11.3823L7.7583 8.60608C7.52438 8.37184 7.52438 7.99266 7.7583 7.75842ZM1.17139 0.570923H5.50928C5.84049 0.571016 6.10876 0.839325 6.10889 1.17053C6.10866 1.50142 5.84109 1.76967 5.51025 1.77014H2.61963L6.24365 5.39514C6.47749 5.6294 6.47756 6.00859 6.24365 6.2428C6.00946 6.47688 5.62933 6.47768 5.39502 6.24377L1.771 2.61877V5.50842C1.771 5.83964 1.50254 6.10875 1.17139 6.10901C0.840017 6.10901 0.570801 5.8398 0.570801 5.50842V0.569946L1.17139 0.570923ZM13.4292 1.17053V5.50842C13.429 5.83964 13.1599 6.10803 12.8286 6.10803C12.4978 6.10756 12.2302 5.83932 12.23 5.50842V2.6178L8.60498 6.2428C8.37076 6.47665 7.99155 6.47663 7.75732 6.2428C7.52313 6.0086 7.52238 5.62851 7.75635 5.39417L11.3813 1.76917L8.49072 1.77014C8.15978 1.76991 7.89148 1.50145 7.89111 1.17053C7.89111 0.839305 8.15955 0.570181 8.49072 0.569946H13.4302L13.4292 1.17053Z" fill="#4D4D4D"/>
</svg>
