<svg width="15" height="16" viewBox="0 0 15 16" fill="none" xmlns="http://www.w3.org/2000/svg">
<path d="M14 9.06714C14.3314 9.06714 14.5996 9.33538 14.5996 9.66675V15.4666H0.400391V9.66675C0.400391 9.33538 0.668629 9.06714 1 9.06714C1.33137 9.06714 1.59961 9.33538 1.59961 9.66675V14.2664H13.4004V9.66675C13.4004 9.33538 13.6686 9.06714 14 9.06714ZM7.36719 0.400146C7.69833 0.400417 7.9668 0.668552 7.9668 0.999756V9.68433L10.7627 6.88843C10.997 6.65448 11.3771 6.65432 11.6113 6.88843C11.8454 7.12264 11.8453 7.50275 11.6113 7.73706L7.36719 11.9812L6.94238 11.5574L3.12305 7.73706C2.88873 7.50275 2.88873 7.12274 3.12305 6.88843C3.35726 6.65475 3.73652 6.65469 3.9707 6.88843L6.7666 9.68433V0.999756C6.7666 0.668385 7.03582 0.400146 7.36719 0.400146Z" fill="#4D4D4D"/>
</svg>
