<svg width="17" height="17" viewBox="0 0 17 17" fill="none" xmlns="http://www.w3.org/2000/svg">
<path d="M2.42871 12.543C3.54891 12.543 4.4569 13.4511 4.45703 14.5713C4.45696 15.6915 3.54895 16.5995 2.42871 16.5996C1.30841 16.5996 0.400466 15.6916 0.400391 14.5713C0.400523 13.4511 1.30844 12.543 2.42871 12.543ZM14.5713 12.543C15.6915 12.543 16.5995 13.4511 16.5996 14.5713C16.5995 15.6915 15.6915 16.5995 14.5713 16.5996C13.4511 16.5995 12.543 15.6915 12.543 14.5713C12.5431 13.4511 13.4511 12.5431 14.5713 12.543ZM7.42871 15.5283H5.28516V14.3281H7.42871V15.5283ZM11.7139 15.5283H9.57129V14.3281H11.7139V15.5283ZM2.6709 11.7139H1.47168V9.57129H2.6709V11.7139ZM15.5283 11.7139H14.3281V9.57129H15.5283V11.7139ZM2.6709 7.42871H1.47168V5.28516H2.6709V7.42871ZM15.5283 7.42871H14.3281V5.28516H15.5283V7.42871ZM2.42871 0.400391C3.54898 0.40049 4.45703 1.30842 4.45703 2.42871C4.45696 3.54893 3.54893 4.45693 2.42871 4.45703C1.30847 4.45696 0.400466 3.54895 0.400391 2.42871C0.400391 1.30841 1.30843 0.400466 2.42871 0.400391ZM14.5713 0.400391C15.6916 0.400466 16.5996 1.30841 16.5996 2.42871C16.5995 3.54895 15.6915 4.45696 14.5713 4.45703C13.4511 4.45693 12.543 3.54893 12.543 2.42871C12.543 1.30842 13.451 0.40049 14.5713 0.400391ZM7.42871 2.6709H5.28516V1.47168H7.42871V2.6709ZM11.7139 2.6709H9.57129V1.47168H11.7139V2.6709Z" fill="#4D4D4D"/>
</svg>
