<svg width="17" height="15" viewBox="0 0 17 15" fill="none" xmlns="http://www.w3.org/2000/svg">
<path d="M4.49109 9.03418C4.78737 9.18235 4.90766 9.54351 4.75964 9.83984C4.61143 10.1362 4.25034 10.2556 3.95398 10.1074L3.1405 9.7002C4.02568 11.7905 6.09415 13.2575 8.50671 13.2578C11.3596 13.2577 13.7322 11.2064 14.2352 8.49902L15.454 8.5C14.9381 11.8731 12.024 14.4569 8.50671 14.457C5.54825 14.4567 3.01691 12.6285 1.98035 10.04L1.5448 10.9111C1.39656 11.2072 1.03636 11.3277 0.740112 11.1797C0.443936 11.0314 0.323412 10.6703 0.471558 10.374L1.8114 7.69434L4.49109 9.03418ZM8.50867 0.400391C11.4672 0.400553 13.9993 2.22903 15.036 4.81738L15.4725 3.94629C15.6209 3.65036 15.9811 3.52981 16.2772 3.67773C16.5733 3.82596 16.6937 4.18714 16.5458 4.4834L15.2059 7.16309L12.5262 5.82324C12.2299 5.67504 12.1095 5.31395 12.2577 5.01758C12.406 4.72143 12.7671 4.60186 13.0634 4.75L13.8759 5.15625C12.9903 3.06645 10.921 1.59977 8.50867 1.59961C5.65624 1.5999 3.28349 3.65061 2.78015 6.35742H1.5614C2.07738 2.98459 4.99164 0.400683 8.50867 0.400391Z" fill="#4D4D4D"/>
</svg>
