<svg width="18" height="18" viewBox="0 0 18 18" fill="none" xmlns="http://www.w3.org/2000/svg">
<path d="M17.8493 7.85646L7.85793 17.8478L3.20028 13.1901L13.1916 3.19881L17.8493 7.85646ZM7.85724 16.1512L16.1519 7.85646L13.1909 4.89545L12.5149 5.57149L13.6149 6.67151C13.8489 6.90573 13.8488 7.28521 13.6149 7.51948C13.3807 7.75373 13.0013 7.75361 12.7669 7.51948L11.6669 6.41946L10.9909 7.0955L12.0909 8.19552C12.325 8.42985 12.3252 8.80924 12.0909 9.04349C11.8566 9.27752 11.4772 9.27754 11.2429 9.04349L10.1429 7.94347L9.46757 8.61881L10.5676 9.71883C10.8017 9.95316 10.8018 10.3326 10.5676 10.5668C10.3333 10.801 9.95391 10.8009 9.71961 10.5668L8.61959 9.46679L7.94356 10.1428L9.04358 11.2428C9.27734 11.4771 9.27747 11.8566 9.04358 12.0908C8.80942 12.325 8.42995 12.3247 8.1956 12.0908L7.09558 10.9908L6.41955 11.6668L7.51957 12.7669C7.75364 13.0012 7.7538 13.3806 7.51957 13.6148C7.28532 13.8488 6.90584 13.8488 6.67159 13.6148L5.57157 12.5148L4.89623 13.1901L7.85724 16.1512ZM9.71961 0.576165C9.95392 0.34186 10.334 0.34119 10.5683 0.575474L12.0923 2.09948C12.3264 2.33381 12.3258 2.7139 12.0916 2.94815C11.8573 3.18214 11.4779 3.18219 11.2436 2.94815L10.9059 2.61048L2.61125 10.9052L2.94893 11.2428C3.18305 11.4772 3.18318 11.8566 2.94893 12.0908C2.71467 12.325 2.33527 12.3249 2.10095 12.0908L0.576942 10.5668C0.342668 10.3325 0.342668 9.95314 0.576942 9.71883C0.811246 9.48453 1.1906 9.48455 1.42492 9.71883L1.76259 10.0565L10.0573 1.76181L9.71961 1.42414C9.48541 1.18991 9.48557 0.81049 9.71961 0.576165Z" fill="#4D4D4D"/>
</svg>
