<?xml version="1.0" encoding="UTF-8"?>
<svg id="_레이어_1" data-name="레이어 1" xmlns="http://www.w3.org/2000/svg" viewBox="0 0 20 20">
  <defs>
    <style>
      .cls-1 {
        fill: #1d7ad6;
      }

      .cls-2 {
        fill: #ff5a27;
      }
    </style>
  </defs>
  <g>
    <circle class="cls-2" cx="10.08" cy="10" r="4.38"/>
    <path class="cls-1" d="M10.08,14.62c-2.55,0-4.62-2.07-4.62-4.62s2.07-4.62,4.62-4.62,4.62,2.07,4.62,4.62-2.07,4.62-4.62,4.62ZM10.08,5.87c-2.28,0-4.13,1.85-4.13,4.13s1.85,4.13,4.13,4.13,4.13-1.85,4.13-4.13-1.85-4.13-4.13-4.13Z"/>
  </g>
  <g>
    <path class="cls-1" d="M10,3.31c-.14,0-.25-.11-.25-.25v-1.82c0-.14.11-.25.25-.25s.25.11.25.25v1.82c0,.14-.11.25-.25.25Z"/>
    <path class="cls-1" d="M10,19c-.14,0-.25-.11-.25-.25v-1.82c0-.14.11-.25.25-.25s.25.11.25.25v1.82c0,.14-.11.25-.25.25Z"/>
  </g>
  <g>
    <path class="cls-1" d="M14.9,5.34c-.06,0-.13-.02-.18-.07-.1-.1-.1-.25,0-.35l1.28-1.28c.1-.1.25-.1.35,0,.1.1.1.25,0,.35l-1.28,1.28s-.11.07-.18.07Z"/>
    <path class="cls-1" d="M3.81,16.44c-.06,0-.13-.02-.18-.07-.1-.1-.1-.25,0-.35l1.28-1.28c.1-.1.25-.1.35,0,.1.1.1.25,0,.35l-1.28,1.28s-.11.07-.18.07Z"/>
  </g>
  <g>
    <path class="cls-1" d="M18.75,10.25h-1.82c-.14,0-.25-.11-.25-.25s.11-.25.25-.25h1.82c.14,0,.25.11.25.25s-.11.25-.25.25Z"/>
    <path class="cls-1" d="M3.06,10.25h-1.82c-.14,0-.25-.11-.25-.25s.11-.25.25-.25h1.82c.14,0,.25.11.25.25s-.11.25-.25.25Z"/>
  </g>
  <g>
    <path class="cls-1" d="M16.19,16.44c-.06,0-.13-.02-.18-.07l-1.28-1.28c-.1-.1-.1-.25,0-.35.1-.1.25-.1.35,0l1.28,1.28c.1.1.1.25,0,.35-.05.05-.11.07-.18.07Z"/>
    <path class="cls-1" d="M5.1,5.34c-.06,0-.13-.02-.18-.07l-1.28-1.28c-.1-.1-.1-.25,0-.35.1-.1.25-.1.35,0l1.28,1.28c.1.1.1.25,0,.35-.05.05-.11.07-.18.07Z"/>
  </g>
</svg>