<?xml version="1.0" encoding="UTF-8"?>
<svg id="_레이어_1" data-name="레이어 1" xmlns="http://www.w3.org/2000/svg" viewBox="0 0 20 20">
  <defs>
    <style>
      .cls-1 {
        fill: #1d7ad6;
      }

      .cls-2 {
        fill: #92c9ff;
      }
    </style>
  </defs>
  <g>
    <path class="cls-2" d="M16.84,6.43h-.11c-.03-1.11-.85-2-1.86-2-.29,0-.56.07-.81.2-.43-.96-1.33-1.62-2.36-1.62-1.45,0-2.63,1.3-2.63,2.91,0,.17.01.34.04.5-1.01.05-1.82.98-1.82,2.12h0c0,1.17.86,2.12,1.92,2.12h7.64c1.06,0,1.92-.95,1.92-2.12h0c0-1.17-.86-2.12-1.92-2.12Z"/>
    <path class="cls-1" d="M16.84,10.94h-7.64c-1.19,0-2.16-1.07-2.16-2.39,0-1.18.77-2.16,1.79-2.35,0-.09-.01-.18-.01-.26,0-1.75,1.29-3.18,2.88-3.18,1.02,0,1.95.59,2.47,1.54.22-.09.46-.13.7-.13,1.07,0,1.94.86,2.09,2,1.14.07,2.04,1.11,2.04,2.39s-.97,2.39-2.16,2.39ZM11.7,3.29c-1.32,0-2.39,1.18-2.39,2.64,0,.15.01.3.04.46.01.08,0,.15-.05.22-.04.06-.11.1-.18.1-.89.05-1.59.86-1.59,1.85s.75,1.85,1.67,1.85h7.64c.92,0,1.67-.83,1.67-1.85s-.75-1.85-1.67-1.85h-.11c-.13,0-.24-.12-.24-.26-.03-.97-.74-1.74-1.62-1.74-.25,0-.48.06-.7.18-.12.06-.27,0-.33-.12-.41-.9-1.23-1.47-2.14-1.47Z"/>
  </g>
  <g>
    <path class="cls-2" d="M14.88,10.93h-.15c-.04-1.58-1.21-2.85-2.66-2.85-.41,0-.8.1-1.15.29-.62-1.37-1.89-2.3-3.37-2.3-2.08,0-3.76,1.86-3.76,4.16,0,.24.02.48.06.72-1.45.08-2.6,1.4-2.6,3.02h0c0,1.67,1.22,3.02,2.73,3.02h10.9c1.51,0,2.73-1.35,2.73-3.02h0c0-1.67-1.22-3.02-2.73-3.02Z"/>
    <path class="cls-1" d="M14.88,17.25H3.98c-1.64,0-2.98-1.48-2.98-3.29,0-1.66,1.11-3.04,2.57-3.26-.02-.16-.02-.32-.02-.47,0-2.44,1.8-4.43,4-4.43,1.45,0,2.76.85,3.48,2.23.33-.14.68-.21,1.04-.21,1.5,0,2.73,1.23,2.88,2.85,1.61.04,2.9,1.5,2.9,3.29s-1.34,3.29-2.98,3.29ZM7.55,6.34c-1.94,0-3.51,1.74-3.51,3.88,0,.22.02.45.05.67.01.08,0,.15-.05.22-.04.06-.11.1-.18.1-1.33.07-2.37,1.28-2.37,2.75s1.12,2.75,2.49,2.75h10.9c1.37,0,2.49-1.23,2.49-2.75s-1.12-2.75-2.49-2.75h-.15c-.13,0-.24-.12-.24-.26-.04-1.45-1.1-2.59-2.41-2.59-.37,0-.72.09-1.05.26-.12.06-.27,0-.33-.12-.6-1.33-1.81-2.15-3.15-2.15Z"/>
  </g>
</svg>