<?xml version="1.0" encoding="UTF-8"?>
<svg id="_레이어_1" data-name="레이어 1" xmlns="http://www.w3.org/2000/svg" viewBox="0 0 20 20">
  <defs>
    <style>
      .cls-1 {
        fill: #1d7ad6;
      }

      .cls-2 {
        fill: #b2b2b2;
      }
    </style>
  </defs>
  <path class="cls-2" d="M15.82,8.77c.02-.14.03-.28.03-.43,0-1.74-1.34-3.14-2.99-3.14-.54,0-1.05.15-1.48.41-.57-1.25-1.79-2.11-3.2-2.11-1.96,0-3.55,1.67-3.55,3.74,0,.51.1,1,.28,1.44-2.03.03-3.67,1.76-3.67,3.9h0c0,2.16,1.66,3.91,3.71,3.91h10.09c2.05,0,3.71-1.75,3.71-3.91h0c0-1.88-1.26-3.44-2.93-3.82Z"/>
  <path class="cls-1" d="M15.04,16.75H4.96c-2.18,0-3.96-1.87-3.96-4.16,0-2.15,1.57-3.93,3.57-4.14-.12-.39-.18-.79-.18-1.21,0-2.2,1.7-3.99,3.79-3.99,1.36,0,2.63.79,3.3,2.02.43-.21.9-.33,1.38-.33,1.78,0,3.23,1.52,3.23,3.4,0,.08,0,.15,0,.23,1.7.49,2.91,2.14,2.91,4.01,0,2.29-1.77,4.16-3.96,4.16ZM8.18,3.76c-1.82,0-3.31,1.56-3.31,3.48,0,.47.09.92.26,1.35.03.08.02.17-.02.24s-.12.11-.2.12c-1.89.02-3.43,1.66-3.43,3.65s1.56,3.65,3.47,3.65h10.09c1.91,0,3.47-1.64,3.47-3.65,0-1.71-1.15-3.21-2.74-3.57-.12-.03-.21-.15-.19-.28.02-.13.03-.26.03-.39,0-1.59-1.23-2.89-2.74-2.89-.48,0-.95.13-1.36.38-.06.04-.13.04-.19.02-.06-.02-.12-.07-.15-.13-.55-1.2-1.72-1.97-2.98-1.97Z"/>
</svg>