<?xml version="1.0" encoding="UTF-8"?>
<svg id="_레이어_1" data-name="레이어 1" xmlns="http://www.w3.org/2000/svg" viewBox="0 0 20 20">
  <defs>
    <style>
      .cls-1 {
        fill: #1d7ad6;
      }

      .cls-2 {
        fill: #b2b2b2;
      }
    </style>
  </defs>
  <g>
    <path class="cls-2" d="M15.82,7.11c.02-.13.03-.26.03-.39,0-1.61-1.34-2.91-2.99-2.91-.54,0-1.05.14-1.48.38-.57-1.16-1.79-1.96-3.2-1.96-1.96,0-3.55,1.55-3.55,3.46,0,.47.1.93.28,1.34-2.03.02-3.67,1.63-3.67,3.62h0c0,2,1.66,3.62,3.71,3.62h10.09c2.05,0,3.71-1.62,3.71-3.62h0c0-1.74-1.26-3.19-2.93-3.54Z"/>
    <path class="cls-1" d="M15.04,14.5H4.96c-2.18,0-3.96-1.73-3.96-3.85,0-1.99,1.57-3.64,3.57-3.83-.12-.36-.18-.74-.18-1.12,0-2.04,1.7-3.7,3.79-3.7,1.36,0,2.63.73,3.3,1.87.43-.2.9-.3,1.38-.3,1.78,0,3.23,1.41,3.23,3.14,0,.07,0,.14,0,.21,1.7.45,2.91,1.98,2.91,3.72,0,2.12-1.77,3.85-3.96,3.85ZM8.18,2.47c-1.82,0-3.31,1.45-3.31,3.22,0,.43.09.85.26,1.25.03.07.02.16-.02.22-.04.07-.12.11-.2.11-1.89.02-3.43,1.54-3.43,3.38s1.56,3.38,3.47,3.38h10.09c1.91,0,3.47-1.52,3.47-3.38,0-1.58-1.15-2.98-2.74-3.31-.12-.03-.21-.14-.19-.26.02-.12.03-.25.03-.36,0-1.47-1.23-2.67-2.74-2.67-.48,0-.95.12-1.36.35-.06.03-.13.04-.19.02-.06-.02-.12-.06-.15-.12-.55-1.11-1.72-1.82-2.98-1.82Z"/>
  </g>
  <g>
    <g>
      <line class="cls-2" x1="5.28" y1="15.76" x2="3.87" y2="17.76"/>
      <path class="cls-1" d="M3.87,18s-.09-.01-.14-.04c-.11-.07-.14-.22-.06-.33l1.4-2c.08-.11.23-.14.34-.06.11.07.14.22.06.33l-1.4,2c-.05.07-.12.1-.2.1Z"/>
    </g>
    <g>
      <line class="cls-2" x1="8.68" y1="15.76" x2="7.27" y2="17.76"/>
      <path class="cls-1" d="M7.27,18s-.09-.01-.14-.04c-.11-.07-.14-.22-.06-.33l1.4-2c.08-.11.23-.14.34-.06.11.07.14.22.06.33l-1.4,2c-.05.07-.12.1-.2.1Z"/>
    </g>
    <g>
      <line class="cls-2" x1="12.08" y1="15.76" x2="10.68" y2="17.76"/>
      <path class="cls-1" d="M10.67,18s-.09-.01-.14-.04c-.11-.07-.14-.22-.06-.33l1.4-2c.08-.11.23-.14.34-.06.11.07.14.22.06.33l-1.4,2c-.05.07-.12.1-.2.1Z"/>
    </g>
    <g>
      <line class="cls-2" x1="15.48" y1="15.76" x2="14.08" y2="17.76"/>
      <path class="cls-1" d="M14.08,18s-.09-.01-.14-.04c-.11-.07-.14-.22-.06-.33l1.4-2c.08-.11.23-.14.34-.06.11.07.14.22.06.33l-1.4,2c-.05.07-.12.1-.2.1Z"/>
    </g>
  </g>
</svg>