<?xml version="1.0" encoding="UTF-8"?>
<svg id="_레이어_1" data-name="레이어 1" xmlns="http://www.w3.org/2000/svg" viewBox="0 0 20 20">
  <defs>
    <style>
      .cls-1 {
        fill: #1d7ad6;
      }

      .cls-2 {
        fill: #92c9ff;
      }

      .cls-3 {
        fill: #ff5a27;
      }
    </style>
  </defs>
  <g>
    <g>
      <ellipse class="cls-3" cx="7.82" cy="9.52" rx="3.32" ry="3.39"/>
      <path class="cls-1" d="M7.82,13.14c-1.96,0-3.55-1.63-3.55-3.63s1.59-3.63,3.55-3.63,3.55,1.63,3.55,3.63-1.59,3.63-3.55,3.63ZM7.82,6.37c-1.7,0-3.09,1.41-3.09,3.15s1.38,3.15,3.09,3.15,3.09-1.41,3.09-3.15-1.38-3.15-3.09-3.15Z"/>
    </g>
    <g>
      <path class="cls-1" d="M7.76,4.38c-.13,0-.23-.11-.23-.24v-1.41c0-.13.1-.24.23-.24s.23.11.23.24v1.41c0,.13-.1.24-.23.24Z"/>
      <path class="cls-1" d="M7.76,16.53c-.13,0-.23-.11-.23-.24v-1.41c0-.13.1-.24.23-.24s.23.11.23.24v1.41c0,.13-.1.24-.23.24Z"/>
    </g>
    <g>
      <path class="cls-1" d="M11.48,5.96c-.06,0-.12-.02-.16-.07-.09-.09-.09-.24,0-.34l.97-.99c.09-.09.24-.09.33,0,.09.09.09.24,0,.34l-.97.99s-.11.07-.16.07Z"/>
      <path class="cls-1" d="M3.07,14.55c-.06,0-.12-.02-.16-.07-.09-.09-.09-.24,0-.34l.97-.99c.09-.09.24-.09.33,0,.09.09.09.24,0,.34l-.97.99s-.11.07-.16.07Z"/>
    </g>
    <g>
      <path class="cls-1" d="M14.4,9.75h-1.38c-.13,0-.23-.11-.23-.24s.1-.24.23-.24h1.38c.13,0,.23.11.23.24s-.1.24-.23.24Z"/>
      <path class="cls-1" d="M2.5,9.75h-1.38c-.13,0-.23-.11-.23-.24s.1-.24.23-.24h1.38c.13,0,.23.11.23.24s-.1.24-.23.24Z"/>
    </g>
    <g>
      <path class="cls-1" d="M12.45,14.55c-.06,0-.12-.02-.16-.07l-.97-.99c-.09-.09-.09-.24,0-.34.09-.09.24-.09.33,0l.97.99c.09.09.09.24,0,.34-.05.05-.11.07-.16.07Z"/>
      <path class="cls-1" d="M4.04,5.96c-.06,0-.12-.02-.16-.07l-.97-.99c-.09-.09-.09-.24,0-.34.09-.09.24-.09.33,0l.97.99c.09.09.09.24,0,.34-.05.05-.11.07-.16.07Z"/>
    </g>
  </g>
  <g>
    <path class="cls-2" d="M16.6,11.44c.01-.11.02-.21.02-.32,0-1.31-1.04-2.37-2.32-2.37-.42,0-.81.11-1.15.31-.45-.94-1.39-1.59-2.48-1.59-1.52,0-2.75,1.26-2.75,2.81,0,.39.08.75.21,1.09-1.57.02-2.84,1.33-2.84,2.94h0c0,1.62,1.29,2.94,2.88,2.94h7.83c1.59,0,2.88-1.32,2.88-2.94h0c0-1.41-.98-2.59-2.28-2.88Z"/>
    <path class="cls-1" d="M15.99,17.5h-7.83c-1.72,0-3.11-1.43-3.11-3.18,0-1.62,1.21-2.97,2.75-3.16-.08-.28-.12-.57-.12-.87,0-1.68,1.34-3.05,2.99-3.05,1.06,0,2.05.59,2.58,1.51.33-.15.69-.23,1.05-.23,1.41,0,2.55,1.17,2.55,2.6,0,.05,0,.09,0,.14,1.32.39,2.26,1.64,2.26,3.06,0,1.75-1.4,3.18-3.11,3.18ZM10.67,7.72c-1.39,0-2.52,1.16-2.52,2.58,0,.35.07.68.2,1,.03.07.02.16-.02.22-.04.07-.11.11-.19.11-1.44.02-2.61,1.23-2.61,2.7s1.19,2.7,2.65,2.7h7.83c1.46,0,2.65-1.21,2.65-2.7,0-1.27-.88-2.38-2.09-2.64-.12-.03-.2-.14-.18-.26.01-.1.02-.2.02-.29,0-1.17-.93-2.13-2.08-2.13-.36,0-.72.1-1.03.28-.06.03-.12.04-.18.02s-.11-.06-.14-.12c-.42-.88-1.31-1.46-2.27-1.46Z"/>
  </g>
</svg>